<svg width="518" height="225" viewBox="0 0 518 225" fill="none" xmlns="http://www.w3.org/2000/svg">
<g opacity="0.8">
<path d="M168.124 28.1105H98.5553C98.5553 12.5856 114.519 0 134.21 0C145.423 0 155.303 4.16211 161.84 10.5423C164.358 9.82638 167.035 9.36958 169.866 9.36958C175.749 9.36958 181.121 11.0632 185.272 13.8541C178.232 17.4733 172.345 22.3619 168.124 28.1105Z" fill="#9EDCF1"/>
<path d="M300.228 199.414C310.39 199.414 319.344 203.186 325.267 208.968C327.549 208.319 329.976 207.905 332.541 207.905C344.437 207.905 354.082 215.509 354.082 224.888H267.916C267.916 210.82 282.383 199.414 300.228 199.414Z" fill="#9EDCF1"/>
<path d="M400.954 105.355C400.488 105.374 400.021 105.384 399.55 105.382C398.279 105.379 396.9 105.375 395.431 105.373C395.088 105.372 394.738 105.371 394.384 105.37C393.368 105.368 392.311 105.366 391.21 105.364C381.561 105.345 368.743 105.327 353.62 105.31C355.587 104.944 357.055 103.56 357.055 101.898C357.055 99.9571 355.059 98.3838 352.598 98.3838C350.137 98.3838 348.141 99.9571 348.141 101.898C348.141 103.557 349.605 104.94 351.567 105.308C341.337 105.296 330.098 105.286 318.106 105.275C320 104.87 321.401 103.519 321.401 101.898C321.401 99.9571 319.405 98.3838 316.944 98.3838C314.483 98.3838 312.487 99.9571 312.487 101.898C312.487 103.517 313.883 104.866 315.773 105.274C305.206 105.265 294.082 105.256 282.564 105.248C284.399 104.813 285.745 103.487 285.745 101.898C285.745 99.9571 283.749 98.3838 281.288 98.3838C278.826 98.3838 276.831 99.9571 276.831 101.898C276.831 103.484 278.174 104.81 280.005 105.246C269.282 105.238 258.236 105.231 247.002 105.225C248.789 104.768 250.09 103.46 250.09 101.899C250.09 99.958 248.094 98.3847 245.633 98.3847C243.171 98.3847 241.176 99.958 241.176 101.899C241.176 103.458 242.473 104.765 244.257 105.224C233.436 105.218 222.453 105.212 211.429 105.206C213.173 104.728 214.434 103.435 214.434 101.898C214.434 99.9571 212.439 98.3838 209.977 98.3838C207.516 98.3838 205.521 99.9571 205.521 101.898C205.521 103.433 206.779 104.725 208.52 105.203C197.62 105.198 186.689 105.192 175.845 105.187C177.554 104.695 178.779 103.415 178.779 101.898C178.779 99.9571 176.784 98.3838 174.322 98.3838C171.861 98.3838 169.865 99.9571 169.865 101.898C169.865 103.413 171.089 104.692 172.794 105.186C161.805 105.18 150.918 105.176 140.254 105.172C141.928 104.667 143.124 103.396 143.124 101.898C143.124 99.9571 141.128 98.3838 138.667 98.3838C136.206 98.3838 134.21 99.9571 134.21 101.898C134.21 103.395 135.402 104.664 137.076 105.171C125.964 105.166 115.11 105.162 104.654 105.158C106.301 104.642 107.469 103.38 107.469 101.898C107.469 99.9571 105.473 98.3838 103.012 98.3838C100.551 98.3838 98.5551 99.9571 98.5551 101.898C98.5551 103.379 99.7206 104.64 101.366 105.157C90.0402 105.152 79.2043 105.149 69.0459 105.146C70.6682 104.622 71.8137 103.366 71.8137 101.898C71.8137 99.9571 69.8181 98.3838 67.3568 98.3838C64.8955 98.3838 62.8999 99.9571 62.8999 101.898C62.8999 103.366 64.0431 104.62 65.6643 105.146C49.6005 105.142 35.3351 105.138 23.609 105.136C25.745 104.603 27.2447 103.354 27.2447 101.898C27.2447 99.9571 24.584 98.3838 21.3026 98.3838H5.55637C4.00757 100.492 2.70059 102.726 1.87494 105.134C5.97305 93.1737 19.6936 84.3286 36.1585 84.3286H383.796L464.021 49.1904H481.848L418.317 99.2781C413.67 102.941 407.483 105.098 400.954 105.355Z" fill="#EBEBF0"/>
<path d="M1.8786 105.134C7.28595 105.134 14.6498 105.135 23.606 105.136H23.6071C35.3332 105.138 49.5986 105.142 65.6624 105.146C66.1849 105.315 66.7554 105.411 67.3549 105.411C67.9532 105.411 68.5226 105.316 69.044 105.146C79.2024 105.149 90.0383 105.152 101.364 105.157C101.875 105.317 102.427 105.411 103.01 105.411C103.591 105.411 104.142 105.317 104.651 105.158C115.108 105.162 125.961 105.166 137.073 105.171C137.569 105.32 138.103 105.411 138.665 105.411C139.226 105.411 139.757 105.321 140.252 105.172C150.916 105.176 161.803 105.18 172.792 105.186C173.271 105.324 173.781 105.411 174.32 105.411C174.857 105.411 175.367 105.324 175.844 105.187C186.687 105.193 197.617 105.198 208.518 105.203C208.977 105.329 209.462 105.411 209.976 105.411C210.487 105.411 210.969 105.33 211.427 105.205C222.452 105.211 233.434 105.217 244.255 105.223C244.69 105.335 245.147 105.411 245.631 105.411C246.112 105.411 246.567 105.336 247 105.224C258.234 105.231 269.28 105.238 280.003 105.245C280.412 105.344 280.837 105.411 281.286 105.411C281.732 105.411 282.154 105.344 282.561 105.248C294.079 105.256 305.203 105.265 315.77 105.274C316.146 105.354 316.533 105.411 316.941 105.411C317.346 105.411 317.731 105.355 318.103 105.275C330.095 105.286 341.334 105.296 351.565 105.308C351.898 105.37 352.24 105.411 352.596 105.411C352.949 105.411 353.289 105.371 353.618 105.31C368.741 105.326 381.559 105.345 391.209 105.363C392.308 105.365 393.366 105.368 394.382 105.369C394.736 105.37 395.086 105.371 395.429 105.372C396.896 105.375 398.275 105.378 399.549 105.382C400.018 105.382 400.486 105.373 400.952 105.354C407.482 105.098 413.668 102.941 418.315 99.2772L481.846 49.1904H517.501L458.676 105.874C445.131 118.926 424.874 126.494 403.485 126.494H325.36L303.57 112.439H178.777L212.451 126.494H18.329C8.48373 126.494 0.501465 120.201 0.501465 112.439C0.501465 109.89 1.05853 107.471 1.8786 105.134Z" fill="#D7DCE1"/>
<path d="M21.3029 98.3876C24.5855 98.3876 27.2451 99.9609 27.2451 101.901C27.2451 103.358 25.7454 104.607 23.6094 105.139H23.6083C14.6521 105.138 7.28823 105.137 1.8809 105.137C1.87867 105.137 1.87646 105.137 1.87424 105.137C2.69988 102.73 4.00685 100.496 5.55562 98.3867H21.3029V98.3876Z" fill="#6E6478"/>
<path d="M62.8968 101.901C62.8968 99.96 64.8923 98.3867 67.3536 98.3867C69.815 98.3867 71.8105 99.96 71.8105 101.901C71.8105 103.369 70.6651 104.625 69.0428 105.149C68.5213 105.318 67.9531 105.414 67.3536 105.414C66.7542 105.414 66.1837 105.318 65.6611 105.149C64.0399 104.623 62.8968 103.368 62.8968 101.901Z" fill="#6E6478"/>
<path d="M98.5515 101.901C98.5515 99.96 100.547 98.3867 103.008 98.3867C105.47 98.3867 107.465 99.96 107.465 101.901C107.465 103.383 106.298 104.645 104.65 105.161C104.14 105.321 103.589 105.414 103.008 105.414C102.426 105.414 101.873 105.32 101.363 105.16C99.717 104.643 98.5515 103.382 98.5515 101.901Z" fill="#6E6478"/>
<path d="M134.211 101.901C134.211 99.96 136.207 98.3867 138.668 98.3867C141.129 98.3867 143.125 99.96 143.125 101.901C143.125 103.399 141.929 104.669 140.255 105.175C139.76 105.324 139.23 105.414 138.668 105.414C138.105 105.414 137.572 105.323 137.077 105.174C135.403 104.667 134.211 103.397 134.211 101.901Z" fill="#6E6478"/>
<path d="M169.863 101.901C169.863 99.96 171.859 98.3867 174.32 98.3867C176.781 98.3867 178.777 99.96 178.777 101.901C178.777 103.418 177.551 104.698 175.843 105.19C175.366 105.327 174.857 105.414 174.32 105.414C173.781 105.414 173.269 105.327 172.791 105.189C171.086 104.695 169.863 103.416 169.863 101.901Z" fill="#6E6478"/>
<path d="M205.517 101.901C205.517 99.96 207.512 98.3867 209.974 98.3867C212.435 98.3867 214.431 99.96 214.431 101.901C214.431 103.438 213.169 104.731 211.426 105.208C210.969 105.333 210.485 105.414 209.974 105.414C209.46 105.414 208.975 105.332 208.516 105.206C206.775 104.728 205.517 103.436 205.517 101.901Z" fill="#6E6478"/>
<path d="M241.174 101.901C241.174 99.96 243.17 98.3867 245.631 98.3867C248.092 98.3867 250.088 99.96 250.088 101.901C250.088 103.462 248.788 104.77 247 105.227C246.566 105.339 246.112 105.414 245.631 105.414C245.147 105.414 244.691 105.338 244.255 105.226C242.471 104.767 241.174 103.46 241.174 101.901Z" fill="#6E6478"/>
<path d="M276.831 101.901C276.831 99.96 278.827 98.3867 281.288 98.3867C283.75 98.3867 285.745 99.96 285.745 101.901C285.745 103.49 284.399 104.816 282.563 105.251C282.156 105.347 281.734 105.414 281.288 105.414C280.839 105.414 280.415 105.347 280.006 105.249C278.174 104.813 276.831 103.487 276.831 101.901Z" fill="#6E6478"/>
<path d="M312.486 101.901C312.486 99.96 314.481 98.3867 316.943 98.3867C319.404 98.3867 321.399 99.96 321.399 101.901C321.399 103.522 319.999 104.873 318.105 105.278C317.731 105.358 317.347 105.414 316.943 105.414C316.535 105.414 316.147 105.357 315.771 105.276C313.882 104.869 312.486 103.52 312.486 101.901Z" fill="#6E6478"/>
<path d="M348.139 101.901C348.139 99.96 350.135 98.3867 352.596 98.3867C355.057 98.3867 357.053 99.96 357.053 101.901C357.053 103.563 355.584 104.947 353.618 105.312C353.288 105.374 352.949 105.414 352.596 105.414C352.239 105.414 351.897 105.373 351.565 105.311C349.603 104.943 348.139 103.56 348.139 101.901Z" fill="#6E6478"/>
<path d="M236.718 154.607C229.334 154.607 223.347 149.888 223.347 144.066C223.347 139.739 226.658 136.024 231.389 134.4L279.802 154.607H236.718Z" fill="#D7DCE1"/>
<path d="M303.573 112.44L325.363 126.496L401.625 175.689H336.957C332.594 175.689 328.299 174.847 324.445 173.239L279.804 154.606L231.39 134.399L212.454 126.496L178.78 112.44H303.573Z" fill="#BEC3C8"/>
<path d="M168.123 28.1102C172.343 22.3616 178.23 17.473 185.271 13.8547C193.66 9.54236 203.672 7.02734 214.434 7.02734C231.253 7.02734 246.073 13.2705 255.877 22.8413C259.655 21.7669 263.67 21.0826 267.917 21.0826C287.608 21.0826 303.572 33.6673 303.572 49.1931H160.951C160.951 41.5102 163.571 34.3139 168.123 28.1102Z" fill="#CCEFFC"/>
<path d="M126.411 174.808C137.974 174.808 148.163 179.1 154.904 185.679C157.5 184.941 160.261 184.471 163.18 184.471C176.718 184.471 187.693 193.122 187.693 203.797H89.6417C89.6417 187.787 106.104 174.808 126.411 174.808Z" fill="#CCEFFC"/>
</g>
</svg>
