<svg width="1145" height="454" viewBox="0 0 1145 454" fill="none" xmlns="http://www.w3.org/2000/svg">
<path d="M10.2435 430.666C10.5562 429.847 10.854 429.127 11.112 428.392C12.1046 425.564 14.3379 424.362 17.0675 423.89C17.8963 423.746 18.7673 423.835 19.6209 423.825C20.1023 423.825 20.5837 423.825 21.2041 423.825C21.2661 422.723 21.3803 421.75 21.3604 420.776C21.3306 419.408 21.8815 418.338 22.7178 417.3C26.4772 412.617 31.4748 410.37 37.3211 410.02C40.2765 409.844 43.0483 410.857 45.6017 412.384C47.9988 413.819 49.6762 415.88 50.8624 418.378C51.041 418.755 51.2594 419.123 51.5175 419.589C54.19 419.041 56.7483 419.093 58.9618 420.98C61.034 422.696 62.4023 425.115 62.8056 427.776C63.3837 427.776 63.8627 427.776 64.3391 427.776C65.7535 427.791 67.163 427.721 68.5576 428.109C70.6395 428.68 72.2946 429.762 73.4485 431.607C75.1036 434.247 76.1781 437.055 76.0912 440.231C76.0143 443.141 74.8505 445.405 72.3691 447.034C70.472 448.296 68.3387 449.159 66.0984 449.572C64.1545 449.906 62.1937 450.134 60.2249 450.255C59.3726 450.272 58.522 450.173 57.6963 449.962C56.5201 449.713 55.463 449.962 54.381 450.426C52.5001 451.24 50.6266 452.08 48.7035 452.782C47.5096 453.222 46.2715 453.53 45.0111 453.701C42.2686 454.092 39.485 454.1 36.7404 453.723C34.2366 453.356 32.043 452.174 29.9636 450.779C29.5541 450.503 29.1397 450.235 28.6534 449.909C27.9263 450.327 27.2191 450.779 26.4722 451.151C25.7724 451.499 25.0404 451.777 24.3108 452.055C22.8455 452.606 21.2997 452.913 19.7351 452.964C17.3901 453.058 15.06 453.15 12.7448 452.551C7.08959 451.096 2.9555 447.814 0.667602 442.408C-0.310089 440.102 -0.143832 437.676 0.712268 435.329C0.920504 434.802 1.22894 434.321 1.62048 433.911C3.5436 431.851 5.88113 430.639 8.76705 430.666H10.2435ZM28.8172 446.585C30.2316 448.221 32.043 449.192 33.9835 449.887C36.8546 450.908 39.8447 450.99 42.8324 450.692C45.3833 450.443 47.897 449.947 50.1626 448.626C50.9591 448.161 51.7929 447.757 52.5894 447.292C52.8927 447.108 53.2298 446.985 53.5808 446.933C53.9319 446.88 54.29 446.897 54.6342 446.984C58.4903 447.871 62.282 447.268 66.0215 446.341C67.7288 445.917 69.4558 445.423 70.9323 444.355C72.1259 443.488 73.0961 442.428 73.3567 440.971C73.6818 439.148 73.8232 437.296 72.8008 435.578C72.5231 435.081 72.289 434.561 72.1011 434.023C71.4658 432.347 70.1407 431.453 68.57 430.857C67.9018 430.615 67.2084 430.448 66.5029 430.361C64.7287 430.112 62.9569 430.053 61.2571 430.785C60.7211 431.016 60.2844 430.842 59.9296 430.425C59.5747 430.008 59.4879 429.531 59.9296 429.102C60.3713 428.672 60.3067 428.208 60.2571 427.711C60.009 425.266 58.7682 423.47 56.6665 422.249C56.0362 421.881 55.4133 421.633 54.6565 421.732C53.9592 421.824 53.2172 421.697 52.5497 421.871C51.8227 422.062 51.1552 422.49 50.505 422.795C49.6638 422.532 49.3189 422.003 49.2147 421.211C49.1278 420.521 49.0534 419.766 48.7184 419.172C47.2667 416.543 45.2195 414.599 42.3063 413.561C39.8241 412.659 37.1281 412.526 34.5692 413.178C30.9485 414.02 27.694 416.004 25.2861 418.837C24.5198 419.69 24.0203 420.749 23.8493 421.884C23.7178 422.877 23.6731 423.87 23.5565 424.863C23.4051 426.137 22.8121 426.601 21.5713 426.507C20.6532 426.44 19.7202 426.259 18.812 426.351C15.4595 426.661 13.7523 428.042 13.0376 431.049C12.9557 431.391 12.916 431.746 12.8391 432.091C12.7809 432.433 12.6519 432.758 12.4605 433.047C12.269 433.336 12.0193 433.581 11.7274 433.767C11.2882 433.673 10.7348 433.566 10.2038 433.44C7.48911 432.809 3.83145 434.78 2.92324 437.38C2.83378 437.65 2.77144 437.928 2.73713 438.21C2.54178 439.37 2.61949 440.56 2.96408 441.686C3.30867 442.811 3.91067 443.841 4.72229 444.693C7.04741 447.265 9.95567 448.735 13.3056 449.458C15.7871 450.001 18.2462 449.783 20.7276 449.535C22.7475 449.333 24.6285 448.802 26.3059 447.63C27.0505 447.091 27.9103 446.733 28.8172 446.585Z" fill="url(#paint0_radial_979_869)"/>
<path d="M28.8163 446.585C27.9086 446.733 27.0479 447.091 26.3026 447.63C24.6252 448.802 22.7442 449.334 20.7243 449.535C18.2429 449.783 15.7788 450.002 13.3023 449.458C9.95234 448.713 7.04408 447.265 4.70159 444.681C3.88997 443.829 3.28797 442.799 2.94338 441.674C2.59879 440.548 2.52108 439.358 2.71643 438.198C2.75074 437.916 2.81308 437.638 2.90254 437.368C3.81075 434.769 7.46841 432.797 10.1831 433.428C10.7241 433.554 11.2675 433.661 11.7067 433.755C11.9986 433.569 12.2483 433.324 12.4398 433.035C12.6312 432.746 12.7602 432.421 12.8184 432.079C12.8953 431.734 12.935 431.379 13.0169 431.037C13.7316 428.03 15.4388 426.649 18.7913 426.339C19.6995 426.254 20.6325 426.428 21.5506 426.495C22.8087 426.587 23.3919 426.125 23.5358 424.851C23.6524 423.858 23.6971 422.865 23.8286 421.872C23.9996 420.738 24.4991 419.678 25.2654 418.825C27.6737 415.984 30.9322 413.995 34.5584 413.151C37.1173 412.499 39.8134 412.632 42.2956 413.534C45.2088 414.572 47.2585 416.513 48.7076 419.145C49.0327 419.739 49.1071 420.494 49.2039 421.184C49.3081 421.976 49.6531 422.505 50.4943 422.768C51.1444 422.463 51.8119 422.036 52.539 421.844C53.2065 421.671 53.9485 421.797 54.6457 421.705C55.4026 421.606 56.0254 421.854 56.6557 422.222C58.7674 423.451 59.9982 425.246 60.2464 427.684C60.296 428.181 60.3283 428.678 59.9188 429.075C59.5094 429.472 59.5491 429.964 59.9188 430.398C60.2886 430.833 60.7104 430.989 61.2464 430.758C62.9462 430.014 64.7204 430.095 66.4922 430.334C67.1968 430.421 67.8893 430.588 68.5567 430.83C70.1275 431.426 71.4551 432.32 72.0879 433.991C72.2757 434.529 72.5099 435.049 72.7876 435.546C73.81 437.264 73.6685 439.116 73.3435 440.939C73.0829 442.396 72.1027 443.457 70.9191 444.323C69.4302 445.396 67.7155 445.89 66.0083 446.31C62.2688 447.236 58.4771 447.839 54.6209 446.953C54.2768 446.865 53.9187 446.848 53.5676 446.901C53.2165 446.954 52.8795 447.076 52.5762 447.261C51.7797 447.725 50.9459 448.13 50.1494 448.594C47.8838 449.917 45.3701 450.406 42.8191 450.66C39.8414 450.958 36.8413 450.876 33.9703 449.855C32.0372 449.192 30.2307 448.221 28.8163 446.585Z" fill="white"/>
<path d="M755.244 320.666C755.556 319.847 755.854 319.127 756.112 318.392C757.105 315.564 759.338 314.362 762.067 313.89C762.896 313.746 763.767 313.835 764.621 313.825C765.102 313.825 765.584 313.825 766.204 313.825C766.266 312.723 766.38 311.75 766.36 310.776C766.331 309.408 766.882 308.338 767.718 307.3C771.477 302.617 776.475 300.37 782.321 300.02C785.276 299.844 788.048 300.857 790.602 302.384C792.999 303.819 794.676 305.88 795.862 308.378C796.041 308.755 796.259 309.123 796.517 309.589C799.19 309.041 801.748 309.093 803.962 310.98C806.034 312.696 807.402 315.115 807.806 317.776C808.384 317.776 808.863 317.776 809.339 317.776C810.754 317.791 812.163 317.721 813.558 318.109C815.639 318.68 817.295 319.762 818.448 321.607C820.104 324.247 821.178 327.055 821.091 330.231C821.014 333.141 819.851 335.405 817.369 337.034C815.472 338.296 813.339 339.159 811.098 339.572C809.154 339.906 807.194 340.134 805.225 340.255C804.373 340.272 803.522 340.173 802.696 339.962C801.52 339.713 800.463 339.962 799.381 340.426C797.5 341.24 795.627 342.08 793.703 342.782C792.51 343.222 791.272 343.53 790.011 343.701C787.269 344.092 784.485 344.1 781.74 343.723C779.237 343.356 777.043 342.174 774.964 340.779C774.554 340.503 774.14 340.235 773.653 339.909C772.926 340.327 772.219 340.779 771.472 341.151C770.772 341.499 770.04 341.777 769.311 342.055C767.845 342.606 766.3 342.913 764.735 342.964C762.39 343.058 760.06 343.15 757.745 342.551C752.09 341.096 747.955 337.814 745.668 332.408C744.69 330.102 744.856 327.676 745.712 325.329C745.921 324.802 746.229 324.321 746.62 323.911C748.544 321.851 750.881 320.639 753.767 320.666H755.244ZM773.817 336.585C775.232 338.221 777.043 339.192 778.984 339.887C781.855 340.908 784.845 340.99 787.832 340.692C790.383 340.443 792.897 339.947 795.163 338.626C795.959 338.161 796.793 337.757 797.589 337.292C797.893 337.108 798.23 336.985 798.581 336.933C798.932 336.88 799.29 336.897 799.634 336.984C803.49 337.871 807.282 337.268 811.022 336.341C812.729 335.917 814.456 335.423 815.932 334.355C817.126 333.488 818.096 332.428 818.357 330.971C818.682 329.148 818.823 327.296 817.801 325.578C817.523 325.081 817.289 324.561 817.101 324.023C816.466 322.347 815.141 321.453 813.57 320.857C812.902 320.615 812.208 320.448 811.503 320.361C809.729 320.112 807.957 320.053 806.257 320.785C805.721 321.016 805.284 320.842 804.93 320.425C804.575 320.008 804.488 319.531 804.93 319.102C805.371 318.672 805.307 318.208 805.257 317.711C805.009 315.266 803.768 313.47 801.666 312.249C801.036 311.881 800.413 311.633 799.656 311.732C798.959 311.824 798.217 311.697 797.55 311.871C796.823 312.062 796.155 312.49 795.505 312.795C794.664 312.532 794.319 312.003 794.215 311.211C794.128 310.521 794.053 309.766 793.718 309.172C792.267 306.543 790.22 304.599 787.306 303.561C784.824 302.659 782.128 302.526 779.569 303.178C775.948 304.02 772.694 306.004 770.286 308.837C769.52 309.69 769.02 310.749 768.849 311.884C768.718 312.877 768.673 313.87 768.556 314.863C768.405 316.137 767.812 316.601 766.571 316.507C765.653 316.44 764.72 316.259 763.812 316.351C760.46 316.661 758.752 318.042 758.038 321.049C757.956 321.391 757.916 321.746 757.839 322.091C757.781 322.433 757.652 322.758 757.46 323.047C757.269 323.336 757.019 323.581 756.727 323.767C756.288 323.673 755.735 323.566 755.204 323.44C752.489 322.809 748.831 324.78 747.923 327.38C747.834 327.65 747.771 327.928 747.737 328.21C747.542 329.37 747.619 330.56 747.964 331.686C748.309 332.811 748.911 333.841 749.722 334.693C752.047 337.265 754.956 338.735 758.306 339.458C760.787 340.001 763.246 339.783 765.728 339.535C767.748 339.333 769.628 338.802 771.306 337.63C772.051 337.091 772.91 336.733 773.817 336.585Z" fill="url(#paint1_radial_979_869)"/>
<path d="M773.816 336.585C772.909 336.733 772.048 337.091 771.303 337.63C769.625 338.802 767.744 339.334 765.724 339.535C763.243 339.783 760.779 340.002 758.302 339.458C754.952 338.713 752.044 337.265 749.702 334.681C748.89 333.829 748.288 332.799 747.943 331.674C747.599 330.548 747.521 329.358 747.716 328.198C747.751 327.916 747.813 327.638 747.903 327.368C748.811 324.769 752.468 322.797 755.183 323.428C755.724 323.554 756.268 323.661 756.707 323.755C756.999 323.569 757.248 323.324 757.44 323.035C757.631 322.746 757.76 322.421 757.818 322.079C757.895 321.734 757.935 321.379 758.017 321.037C758.732 318.03 760.439 316.649 763.791 316.339C764.699 316.254 765.632 316.428 766.551 316.495C767.809 316.587 768.392 316.125 768.536 314.851C768.652 313.858 768.697 312.865 768.829 311.872C769 310.738 769.499 309.678 770.265 308.825C772.674 305.984 775.932 303.995 779.558 303.151C782.117 302.499 784.813 302.632 787.296 303.534C790.209 304.572 792.258 306.513 793.708 309.145C794.033 309.739 794.107 310.494 794.204 311.184C794.308 311.976 794.653 312.505 795.494 312.768C796.144 312.463 796.812 312.036 797.539 311.844C798.207 311.671 798.948 311.797 799.646 311.705C800.403 311.606 801.025 311.854 801.656 312.222C803.767 313.451 804.998 315.246 805.246 317.684C805.296 318.181 805.328 318.678 804.919 319.075C804.509 319.472 804.549 319.964 804.919 320.398C805.289 320.833 805.71 320.989 806.246 320.758C807.946 320.014 809.72 320.095 811.492 320.334C812.197 320.421 812.889 320.588 813.557 320.83C815.128 321.426 816.455 322.32 817.088 323.991C817.276 324.529 817.51 325.049 817.788 325.546C818.81 327.264 818.669 329.116 818.343 330.939C818.083 332.396 817.103 333.457 815.919 334.323C814.43 335.396 812.716 335.89 811.008 336.31C807.269 337.236 803.477 337.839 799.621 336.953C799.277 336.865 798.919 336.848 798.568 336.901C798.217 336.954 797.88 337.076 797.576 337.261C796.78 337.725 795.946 338.13 795.149 338.594C792.884 339.917 790.37 340.406 787.819 340.66C784.841 340.958 781.841 340.876 778.97 339.855C777.037 339.192 775.231 338.221 773.816 336.585Z" fill="white"/>
<path d="M1111.14 196.582C1111.1 196.284 1111.04 195.987 1110.97 195.694C1110.31 193.532 1110.84 191.536 1112.03 189.751C1113.06 188.197 1114.38 186.863 1115.93 185.825C1117.21 184.972 1118.63 184.561 1120.09 184.245C1122.98 183.622 1125.66 184.201 1128.11 185.825C1129.38 186.669 1130.3 187.854 1131.01 189.182C1131.61 190.296 1132.08 191.467 1132.25 192.698C1132.53 192.956 1132.79 192.815 1133.05 192.752C1133.75 192.565 1134.48 192.52 1135.2 192.621C1135.92 192.721 1136.61 192.965 1137.23 193.336C1138.11 193.818 1138.82 194.561 1139.25 195.463C1139.52 196.031 1139.75 196.617 1140.03 197.268C1140.38 197.29 1140.73 197.287 1141.07 197.259C1141.84 197.148 1142.47 197.404 1143.12 197.79C1144.87 198.834 1145.18 200.396 1144.88 201.978C1144.57 203.664 1143.66 204.942 1142.05 205.721C1140.12 206.657 1138.07 206.937 1135.98 206.924C1133.95 206.913 1131.91 206.766 1129.88 206.663C1127.63 206.54 1125.37 206.327 1123.12 206.271C1121.58 206.234 1120.04 206.312 1118.51 206.504C1115.54 206.88 1112.57 207.121 1109.58 206.937C1108.81 206.87 1108.05 206.737 1107.31 206.54C1105.98 206.224 1105.15 205.314 1104.57 204.113C1104.1 203.144 1103.98 202.139 1104 201.083C1104.01 200.304 1104.3 199.554 1104.81 198.969C1106.32 197.243 1108.16 196.235 1110.55 196.581C1110.74 196.592 1110.94 196.592 1111.14 196.582ZM1138.32 198.728C1138.24 198.31 1138.18 197.915 1138.1 197.524C1137.8 196.056 1137.05 194.969 1135.6 194.39C1134.74 194.051 1133.95 193.976 1133.12 194.409C1132.77 194.604 1132.4 194.773 1132.02 194.915C1131.33 195.157 1130.89 194.915 1130.68 194.196C1130.62 194.024 1130.59 193.845 1130.59 193.664C1130.62 192.489 1130.15 191.438 1129.67 190.425C1128.68 188.335 1127.12 186.844 1124.9 186.054C1122.99 185.376 1121.09 185.4 1119.16 185.948C1118.34 186.183 1117.55 186.548 1116.84 187.029C1115.58 187.873 1114.59 188.986 1113.64 190.139C1113.03 190.874 1112.61 191.752 1112.42 192.692C1112.18 193.938 1112.14 195.206 1112.92 196.356C1113.18 196.783 1113.39 197.238 1113.54 197.712C1113.58 197.829 1113.6 197.955 1113.58 198.077C1113.56 198.2 1113.5 198.316 1113.42 198.412C1113.35 198.508 1113.24 198.582 1113.13 198.625C1113.01 198.669 1112.88 198.681 1112.76 198.66C1112.45 198.608 1112.15 198.501 1111.87 198.344C1110.02 197.293 1107.88 198.065 1106.69 199.368C1106.36 199.727 1106.01 200.159 1105.9 200.609C1105.6 201.9 1105.88 203.115 1106.68 204.195C1107.2 204.9 1107.96 205.19 1108.77 205.337C1110.29 205.615 1111.84 205.668 1113.37 205.495C1115.44 205.26 1117.51 204.96 1119.58 204.836C1123.25 204.625 1126.92 204.719 1130.57 205.118C1133 205.384 1135.45 205.447 1137.89 205.307C1139.05 205.239 1140.11 204.874 1141.13 204.375C1141.62 204.125 1142.03 203.758 1142.34 203.307C1142.83 202.629 1143.06 201.85 1143.25 201.055C1143.31 200.811 1143.3 200.555 1143.23 200.314C1143.16 200.073 1143.02 199.857 1142.83 199.688C1142.68 199.53 1142.52 199.362 1142.35 199.214C1141.76 198.728 1141.15 198.438 1140.35 198.739C1139.75 198.977 1139.11 199 1138.32 198.728H1138.32Z" fill="url(#paint2_radial_979_869)"/>
<path d="M1138.31 198.729C1139.1 199.001 1139.75 198.977 1140.35 198.751C1141.15 198.446 1141.76 198.737 1142.34 199.225C1142.51 199.371 1142.67 199.542 1142.83 199.7C1143.02 199.869 1143.15 200.085 1143.22 200.326C1143.3 200.567 1143.3 200.823 1143.24 201.067C1143.05 201.857 1142.82 202.647 1142.33 203.318C1142.03 203.77 1141.61 204.137 1141.13 204.387C1140.1 204.886 1139.05 205.251 1137.89 205.319C1135.45 205.459 1133 205.396 1130.56 205.13C1126.92 204.731 1123.24 204.637 1119.58 204.848C1117.5 204.972 1115.44 205.272 1113.37 205.507C1111.83 205.68 1110.29 205.627 1108.77 205.349C1107.96 205.202 1107.2 204.911 1106.68 204.207C1105.89 203.127 1105.59 201.912 1105.89 200.621C1106 200.169 1106.35 199.739 1106.68 199.38C1107.88 198.066 1110.02 197.294 1111.87 198.35C1112.14 198.507 1112.45 198.614 1112.76 198.666C1112.88 198.687 1113.01 198.675 1113.12 198.631C1113.24 198.587 1113.34 198.514 1113.42 198.417C1113.5 198.321 1113.55 198.206 1113.57 198.083C1113.59 197.96 1113.58 197.834 1113.54 197.718C1113.38 197.243 1113.18 196.788 1112.92 196.362C1112.14 195.202 1112.18 193.935 1112.42 192.692C1112.61 191.753 1113.03 190.875 1113.64 190.14C1114.59 188.987 1115.58 187.874 1116.84 187.025C1117.55 186.544 1118.33 186.179 1119.16 185.945C1121.09 185.396 1122.98 185.372 1124.89 186.05C1127.11 186.841 1128.68 188.336 1129.66 190.426C1130.14 191.439 1130.61 192.49 1130.58 193.664C1130.58 193.845 1130.61 194.025 1130.67 194.197C1130.87 194.91 1131.31 195.158 1132 194.916C1132.38 194.774 1132.75 194.605 1133.11 194.41C1133.94 193.977 1134.73 194.052 1135.58 194.391C1137.04 194.97 1137.78 196.057 1138.09 197.525C1138.17 197.915 1138.24 198.31 1138.31 198.729Z" fill="white"/>
<path d="M927.31 15.3176C927.36 14.954 927.429 14.5931 927.516 14.2364C928.316 11.6046 927.675 9.17477 926.229 7.00081C924.975 5.10928 923.358 3.48504 921.473 2.22195C919.92 1.18307 918.193 0.682862 916.417 0.298091C912.894 -0.459909 909.635 0.244223 906.65 2.22195C905.097 3.24929 903.987 4.69218 903.119 6.30822C902.392 7.66454 901.811 9.09012 901.611 10.5888C901.263 10.9024 900.945 10.7312 900.638 10.6542C899.784 10.4268 898.893 10.3727 898.018 10.4949C897.143 10.6172 896.302 10.9134 895.543 11.366C894.473 11.9521 893.613 12.8573 893.083 13.9555C892.754 14.6462 892.477 15.36 892.138 16.1526C891.715 16.1795 891.291 16.1757 890.868 16.1411C889.937 16.0064 889.166 16.318 888.379 16.7875C886.239 18.0591 885.868 19.9599 886.232 21.8857C886.616 23.9384 887.717 25.4948 889.675 26.4433C892.026 27.5822 894.52 27.9227 897.063 27.9074C899.541 27.8939 902.017 27.715 904.493 27.5899C907.238 27.4399 909.982 27.1801 912.729 27.1128C914.602 27.0675 916.476 27.162 918.335 27.3956C921.952 27.8535 925.567 28.1478 929.209 27.9227C930.141 27.8412 931.065 27.6796 931.969 27.4399C933.591 27.0551 934.597 25.9469 935.309 24.4848C935.883 23.3055 936.027 22.0819 935.996 20.7968C935.987 19.8487 935.638 18.9354 935.013 18.2227C933.17 16.1218 930.938 14.8944 928.031 15.3157C927.791 15.329 927.55 15.3296 927.31 15.3176ZM894.22 17.9302C894.312 17.4204 894.389 16.9394 894.487 16.4643C894.856 14.677 895.766 13.3534 897.534 12.6493C898.575 12.2356 899.541 12.1452 900.547 12.6723C900.981 12.9096 901.431 13.1153 901.894 13.288C902.735 13.5823 903.269 13.288 903.519 12.4126C903.588 12.2032 903.625 11.9846 903.629 11.7643C903.598 10.3349 904.164 9.05549 904.745 7.82229C905.955 5.27703 907.858 3.46284 910.561 2.50091C912.885 1.67557 915.195 1.70443 917.539 2.37201C918.546 2.65719 919.501 3.10142 920.369 3.68793C921.902 4.71527 923.106 6.06966 924.261 7.47408C925.009 8.36839 925.519 9.43709 925.744 10.5811C926.038 12.099 926.088 13.642 925.14 15.0425C924.825 15.5613 924.573 16.1154 924.388 16.6932C924.334 16.8348 924.318 16.9881 924.342 17.1376C924.367 17.2872 924.43 17.4276 924.526 17.5448C924.622 17.662 924.748 17.7517 924.889 17.8048C925.031 17.858 925.185 17.8727 925.334 17.8475C925.715 17.7842 926.082 17.6539 926.417 17.4627C928.674 16.1834 931.279 17.1222 932.726 18.7094C933.128 19.1461 933.559 19.6713 933.687 20.2196C934.055 21.7914 933.707 23.2709 932.735 24.5849C932.1 25.4429 931.175 25.7969 930.188 25.9758C928.341 26.3138 926.455 26.3787 924.59 26.1682C922.071 25.8815 919.555 25.516 917.029 25.3659C912.569 25.1087 908.095 25.2232 903.654 25.7084C900.694 26.0325 897.712 26.1097 894.739 25.9393C893.329 25.8565 892.046 25.4121 890.797 24.8042C890.206 24.5001 889.701 24.053 889.327 23.5036C888.733 22.6783 888.452 21.7299 888.223 20.7622C888.147 20.4655 888.154 20.1538 888.242 19.8606C888.33 19.5673 888.496 19.3037 888.723 19.098C888.915 18.9056 889.108 18.7017 889.318 18.5209C890.029 17.9302 890.77 17.5762 891.744 17.9437C892.473 18.2323 893.256 18.2611 894.223 17.9302H894.22Z" fill="url(#paint3_radial_979_869)"/>
<path d="M894.223 17.9297C893.261 18.2606 892.473 18.2317 891.747 17.9566C890.774 17.5853 890.033 17.9393 889.321 18.5337C889.112 18.7107 888.923 18.9185 888.727 19.1109C888.5 19.3166 888.334 19.5802 888.246 19.8734C888.157 20.1667 888.151 20.4784 888.227 20.775C888.456 21.737 888.737 22.6989 889.331 23.5165C889.705 24.0659 890.21 24.513 890.801 24.8171C892.049 25.425 893.333 25.8694 894.743 25.9521C897.716 26.1226 900.698 26.0454 903.658 25.7213C908.099 25.2361 912.573 25.1215 917.033 25.3788C919.559 25.5289 922.075 25.8944 924.593 26.1811C926.459 26.3915 928.345 26.3267 930.192 25.9887C931.179 25.8098 932.104 25.4558 932.739 24.5977C933.701 23.2837 934.059 21.8043 933.691 20.2325C933.562 19.6823 933.132 19.159 932.729 18.7223C931.279 17.1216 928.674 16.1828 926.417 17.4679C926.082 17.6591 925.715 17.7894 925.334 17.8527C925.185 17.8779 925.031 17.8632 924.889 17.81C924.748 17.7568 924.622 17.6671 924.526 17.55C924.43 17.4328 924.367 17.2924 924.342 17.1428C924.318 16.9933 924.334 16.84 924.388 16.6984C924.573 16.1206 924.825 15.5665 925.14 15.0477C926.088 13.6356 926.038 12.0927 925.744 10.5805C925.519 9.4365 925.009 8.3678 924.261 7.47349C923.106 6.06908 921.902 4.71468 920.369 3.68157C919.501 3.09506 918.546 2.65083 917.539 2.36565C915.195 1.69807 912.885 1.66922 910.561 2.49455C907.867 3.45648 905.955 5.27645 904.757 7.82171C904.179 9.0549 903.602 10.3343 903.641 11.7637C903.637 11.9841 903.6 12.2026 903.531 12.412C903.281 13.2797 902.746 13.5817 901.905 13.2874C901.442 13.1147 900.992 12.909 900.559 12.6718C899.553 12.1446 898.587 12.235 897.546 12.6487C895.778 13.3528 894.868 14.6764 894.499 16.4637C894.393 16.9389 894.316 17.4198 894.223 17.9297Z" fill="white"/>
<defs>
<radialGradient id="paint0_radial_979_869" cx="0" cy="0" r="1" gradientUnits="userSpaceOnUse" gradientTransform="translate(38.0481 432) scale(38.0481 22)">
<stop stop-color="#1B9CE5"/>
<stop offset="1" stop-color="#0A0E18"/>
</radialGradient>
<radialGradient id="paint1_radial_979_869" cx="0" cy="0" r="1" gradientUnits="userSpaceOnUse" gradientTransform="translate(783.048 322) scale(38.0481 22)">
<stop stop-color="#1B9CE5"/>
<stop offset="1" stop-color="#0A0E18"/>
</radialGradient>
<radialGradient id="paint2_radial_979_869" cx="0" cy="0" r="1" gradientUnits="userSpaceOnUse" gradientTransform="translate(1124.49 195.5) scale(20.4908 11.5)">
<stop stop-color="#1B9CE5"/>
<stop offset="1" stop-color="#0A0E18"/>
</radialGradient>
<radialGradient id="paint3_radial_979_869" cx="0" cy="0" r="1" gradientUnits="userSpaceOnUse" gradientTransform="translate(911.055 14) rotate(180) scale(24.9453 14)">
<stop stop-color="#1B9CE5"/>
<stop offset="1" stop-color="#0A0E18"/>
</radialGradient>
</defs>
</svg>
