<svg width="320" height="320" viewBox="0 0 320 320" fill="none" xmlns="http://www.w3.org/2000/svg">
<g opacity="0.7" clip-path="url(#clip0_925_2768)">
<mask id="mask0_925_2768" style="mask-type:luminance" maskUnits="userSpaceOnUse" x="26" y="34" width="247" height="222">
<path d="M220.208 255.197C220.208 255.197 284.108 265.156 270.895 132.072C257.682 -1.01148 140.751 22.1066 101.113 85.8591C61.4757 149.612 -28.9643 207.679 75.064 255.94L220.208 255.197Z" fill="white"/>
</mask>
<g mask="url(#mask0_925_2768)">
<path d="M15.2791 8.2041H273.7V255.94H15.2791V8.2041Z" fill="#E6F5FF"/>
</g>
<mask id="mask1_925_2768" style="mask-type:luminance" maskUnits="userSpaceOnUse" x="26" y="34" width="247" height="222">
<path d="M220.208 255.197C220.208 255.197 284.108 265.156 270.895 132.072C257.682 -1.01148 140.751 22.1066 101.113 85.8591C61.4757 149.612 -28.9643 207.679 75.064 255.94L220.208 255.197Z" fill="white"/>
</mask>
<g mask="url(#mask1_925_2768)">
<path d="M160.581 194.87C162.482 191.855 162.89 189.248 162.89 189.248L162.38 188.963C162.38 188.963 161.294 191.57 160.853 192.14C160.411 192.711 159.054 188.8 159.054 188.8H158.409C158.409 188.8 159.964 191.901 159.868 193.036C159.773 194.172 159.529 194.707 159.529 194.707L160.581 194.87Z" fill="#76BDD6"/>
<path d="M155.579 225.146C154.858 219.808 155.819 215.336 155.94 211.946C156.06 208.556 156.961 200.26 156.961 200.26L156.48 199.539C156.48 199.539 155.579 208.051 154.978 210.792C154.377 213.533 152.153 205.31 150.89 202.496C149.628 199.683 147.825 194.057 147.825 194.057H147.043C147.043 194.057 150.109 202.352 150.349 204.444C150.59 206.536 144.759 193.769 144.759 193.769H143.858C143.858 193.769 148.305 203.074 149.448 205.67C150.59 208.267 152.032 213.46 152.032 216.778C152.032 220.097 148.426 211.224 148.426 211.224L147.765 211.873C147.765 211.873 150.887 217.821 151.071 220.962C151.254 224.104 150.77 226.228 150.77 226.228C150.77 226.228 151.217 227.379 153.581 227.307C155.946 227.235 155.579 225.146 155.579 225.146Z" fill="#76BDD6"/>
<path d="M151.017 207.999C150.135 208.192 149.735 206.557 147.971 205.883C146.208 205.21 144.645 205.066 143.683 206.749C142.721 208.432 141.038 208.673 140.317 209.394C139.596 210.115 136.951 213.205 138.754 214.395C140.557 215.585 141.147 214.059 143.858 214.395C146.569 214.732 148.226 213.437 149.562 213.844C150.897 214.251 155.506 213.241 154.945 211.75C154.384 210.26 153.622 209.731 152.5 209.634C151.378 209.538 151.017 207.999 151.017 207.999Z" fill="#A3D1E5"/>
<path d="M155.345 194.293C156.467 195.255 155.144 194.822 154.183 195.784C153.221 196.746 151.205 197.515 150.409 196.361C149.614 195.207 149.895 193.283 149.093 194.774C148.292 196.265 149.36 197.99 149.414 199.535C149.467 201.08 147.64 200.215 146.804 199.971C145.967 199.728 144.925 198.67 143.643 199.247C142.36 199.824 140.437 198.766 138.393 198.958C136.349 199.15 135.983 195.067 134.781 192.975C133.579 190.883 134.157 191.761 130.092 191.893C126.027 192.025 125.103 190.667 124.562 188.936C124.021 187.205 123.845 183.232 129.296 183.521C134.746 183.81 137.391 181.405 139.074 178.808C140.757 176.211 143.713 175.301 146.563 176.718C149.414 178.135 154.383 177.654 155.345 179.481C156.307 181.309 160.154 183.04 159.352 186.118C158.551 189.196 153.595 186.756 152.453 188.243C151.311 189.73 158.043 189.369 158.404 190.956C158.765 192.543 158.043 192.615 156.661 192.759C155.278 192.903 155.345 194.293 155.345 194.293Z" fill="#A3D1E5"/>
<path d="M172.555 186.225C173.678 187.187 172.355 186.754 171.393 187.716C170.431 188.677 168.415 189.447 167.62 188.293C166.825 187.138 167.105 185.215 166.304 186.706C165.502 188.197 166.571 189.922 166.624 191.467C166.677 193.011 164.85 192.147 164.014 191.903C163.178 191.659 162.136 190.601 160.853 191.178C159.571 191.755 157.647 190.697 155.603 190.89C153.56 191.082 153.193 186.999 151.991 184.907C150.789 182.815 151.368 183.693 147.303 183.825C143.238 183.957 142.314 182.598 141.773 180.867C141.232 179.136 141.056 175.164 146.506 175.453C151.957 175.741 154.602 173.337 156.285 170.74C157.968 168.143 160.923 167.233 163.774 168.65C166.624 170.066 171.594 169.586 172.555 171.413C173.517 173.24 177.364 174.972 176.563 178.049C175.761 181.127 170.806 178.687 169.664 180.174C168.522 181.661 175.254 181.3 175.615 182.887C175.975 184.474 175.254 184.546 173.871 184.691C172.489 184.835 172.555 186.225 172.555 186.225Z" fill="#A3D1E5"/>
<path d="M164.482 199.103C164.616 201.154 162.986 200.449 162.051 202.341C161.116 204.232 162.932 205.45 161.517 206.541C160.101 207.631 158.765 206.028 157.162 206.06C155.559 206.092 155.772 204.489 153.795 204.457C151.818 204.425 151.656 205.964 150.643 203.783C149.629 201.603 150.83 201.507 152.486 200.433C154.142 199.359 154.623 197.98 153.688 197.532C152.753 197.083 153.742 194.935 154.41 194.582C155.078 194.229 159.272 193.62 163.48 194.822C167.688 196.025 170.453 194.582 171.495 195.784C172.537 196.987 174.942 198.477 172.056 199.343C169.171 200.209 167.207 198.574 167.127 200.738C167.047 202.902 173.98 203.719 170.734 204.633C167.488 205.547 164.763 204.537 165.324 202.469C165.885 200.401 164.482 199.103 164.482 199.103Z" fill="#A3D1E5"/>
</g>
<mask id="mask2_925_2768" style="mask-type:luminance" maskUnits="userSpaceOnUse" x="26" y="34" width="247" height="222">
<path d="M220.208 255.197C220.208 255.197 284.108 265.156 270.895 132.072C257.682 -1.01148 140.751 22.1066 101.113 85.8591C61.4757 149.612 -28.9643 207.679 75.064 255.94L220.208 255.197Z" fill="white"/>
</mask>
<g mask="url(#mask2_925_2768)">
<path d="M214.163 180.624C215.21 178.963 215.435 177.527 215.435 177.527L215.154 177.369C215.154 177.369 214.555 178.806 214.312 179.12C214.069 179.434 213.321 177.28 213.321 177.28H212.966C212.966 177.28 213.822 178.988 213.77 179.614C213.717 180.24 213.583 180.534 213.583 180.534L214.163 180.624Z" fill="#76BDD6"/>
<path d="M211.407 197.304C211.009 194.363 211.539 191.899 211.605 190.032C211.672 188.164 212.168 183.594 212.168 183.594L211.903 183.196C211.903 183.196 211.407 187.886 211.076 189.396C210.744 190.906 209.519 186.376 208.823 184.826C208.128 183.276 207.135 180.176 207.135 180.176H206.704C206.704 180.176 208.393 184.746 208.526 185.899C208.658 187.051 205.446 180.017 205.446 180.017H204.949C204.949 180.017 207.4 185.144 208.029 186.575C208.658 188.005 209.453 190.866 209.453 192.695C209.453 194.523 207.466 189.634 207.466 189.634L207.102 189.992C207.102 189.992 208.822 193.269 208.923 195C209.024 196.731 208.757 197.901 208.757 197.901C208.757 197.901 209.004 198.535 210.306 198.495C211.609 198.455 211.407 197.304 211.407 197.304Z" fill="#76BDD6"/>
<path d="M208.893 187.858C208.408 187.963 208.187 187.063 207.215 186.692C206.244 186.321 205.383 186.241 204.853 187.169C204.323 188.096 203.396 188.228 202.998 188.626C202.601 189.023 201.143 190.726 202.137 191.382C203.131 192.037 203.455 191.196 204.949 191.382C206.442 191.567 207.356 190.853 208.091 191.078C208.827 191.302 211.366 190.746 211.057 189.924C210.748 189.103 210.328 188.811 209.71 188.758C209.092 188.705 208.893 187.858 208.893 187.858Z" fill="#A3D1E5"/>
<path d="M211.278 180.306C211.896 180.836 211.168 180.598 210.638 181.128C210.108 181.658 208.997 182.081 208.559 181.445C208.121 180.81 208.275 179.75 207.834 180.571C207.392 181.393 207.981 182.343 208.01 183.194C208.04 184.045 207.033 183.569 206.572 183.435C206.111 183.3 205.537 182.717 204.831 183.035C204.124 183.353 203.065 182.77 201.939 182.876C200.812 182.982 200.611 180.733 199.949 179.58C199.286 178.427 199.605 178.911 197.365 178.984C195.126 179.056 194.617 178.308 194.319 177.355C194.021 176.401 193.924 174.212 196.927 174.371C199.929 174.53 201.387 173.205 202.314 171.775C203.241 170.344 204.87 169.842 206.44 170.623C208.011 171.404 210.749 171.139 211.278 172.146C211.808 173.152 213.928 174.106 213.486 175.802C213.045 177.498 210.314 176.153 209.685 176.973C209.056 177.792 212.765 177.593 212.964 178.467C213.162 179.342 212.765 179.381 212.003 179.461C211.242 179.54 211.278 180.306 211.278 180.306Z" fill="#A3D1E5"/>
<path d="M220.76 175.861C221.378 176.391 220.649 176.152 220.12 176.682C219.59 177.212 218.479 177.636 218.041 177C217.603 176.364 217.757 175.304 217.316 176.125C216.874 176.947 217.463 177.897 217.492 178.749C217.521 179.599 216.515 179.123 216.054 178.989C215.593 178.855 215.019 178.272 214.313 178.59C213.606 178.908 212.546 178.325 211.42 178.431C210.294 178.537 210.092 176.287 209.43 175.135C208.768 173.982 209.086 174.466 206.847 174.538C204.607 174.611 204.098 173.863 203.8 172.909C203.502 171.955 203.405 169.767 206.408 169.926C209.411 170.085 210.868 168.76 211.796 167.329C212.723 165.898 214.351 165.397 215.922 166.178C217.492 166.958 220.23 166.693 220.76 167.7C221.29 168.707 223.409 169.661 222.968 171.356C222.526 173.052 219.796 171.708 219.167 172.527C218.537 173.346 222.247 173.148 222.445 174.022C222.644 174.896 222.247 174.936 221.485 175.016C220.723 175.095 220.76 175.861 220.76 175.861Z" fill="#A3D1E5"/>
<path d="M216.312 182.956C216.386 184.086 215.488 183.698 214.973 184.74C214.457 185.782 215.458 186.453 214.678 187.054C213.898 187.654 213.162 186.771 212.279 186.789C211.396 186.806 211.513 185.923 210.424 185.906C209.335 185.888 209.245 186.736 208.687 185.535C208.129 184.333 208.79 184.281 209.703 183.689C210.615 183.097 210.88 182.338 210.365 182.091C209.85 181.843 210.395 180.66 210.763 180.465C211.131 180.271 213.442 179.936 215.76 180.598C218.078 181.26 219.602 180.465 220.176 181.128C220.75 181.79 222.075 182.612 220.485 183.088C218.895 183.565 217.813 182.664 217.769 183.857C217.725 185.049 221.545 185.499 219.756 186.003C217.968 186.506 216.466 185.95 216.776 184.811C217.085 183.671 216.312 182.956 216.312 182.956Z" fill="#A3D1E5"/>
</g>
<mask id="mask3_925_2768" style="mask-type:luminance" maskUnits="userSpaceOnUse" x="26" y="34" width="247" height="222">
<path d="M220.208 255.197C220.208 255.197 284.108 265.156 270.895 132.072C257.682 -1.01148 140.751 22.1066 101.113 85.8591C61.4757 149.612 -28.9643 207.679 75.064 255.94L220.208 255.197Z" fill="white"/>
</mask>
<g mask="url(#mask3_925_2768)">
<path d="M246.925 144.548C246.229 140.264 246.006 140.467 243.156 136.716C240.306 132.965 237.365 134.573 234.423 134.707C231.481 134.841 227.391 131.403 227.391 131.403C227.391 131.403 232.722 133.572 233.917 133.517C235.112 133.462 232.033 127.321 232.033 127.321C232.033 127.321 234.423 131.752 235.158 132.745C235.894 133.737 238.606 132.689 239.709 132.8C240.812 132.91 237.457 125.133 237.457 125.133C237.457 125.133 239.272 128.222 240.054 130.263C240.693 131.932 241.869 132.386 241.869 132.386L239.962 123.396L233.825 116.841L240.199 122.651L241.118 112.576C241.118 112.576 240.488 122.568 241.157 125.216C241.825 127.863 242.926 132.441 242.926 132.441L247.553 120.849C247.553 120.849 244.443 131.586 243.983 133.848C243.524 136.109 245.868 137.323 247.109 140.742C248.35 144.162 248.35 144.162 248.35 144.162L246.925 144.548Z" fill="#76BDD6"/>
<path d="M250.812 188.666C251.881 180.757 250.456 174.131 250.277 169.108C250.1 164.086 248.258 151.498 248.258 151.498L251.062 150.726C251.062 150.726 251.336 163.709 252.227 167.77C253.117 171.831 255.888 159.276 257.758 155.108C259.628 150.941 262.3 142.605 262.3 142.605H263.458C263.458 142.605 258.916 154.895 258.56 157.994C258.204 161.093 266.842 142.177 266.842 142.177H268.178C268.178 142.177 261.588 155.963 259.896 159.811C258.204 163.658 256.066 171.353 256.066 176.269C256.066 181.185 261.41 168.04 261.41 168.04L262.39 169.002C262.39 169.002 257.764 177.813 257.491 182.467C257.219 187.122 257.937 190.269 257.937 190.269C257.937 190.269 257.274 191.974 253.771 191.868C250.268 191.761 250.812 188.666 250.812 188.666Z" fill="#76BDD6"/>
<path d="M257.572 163.261C258.878 163.546 259.472 161.123 262.084 160.126C264.697 159.128 267.012 158.915 268.437 161.408C269.862 163.902 272.356 164.258 273.425 165.327C274.494 166.396 278.412 170.974 275.74 172.737C273.068 174.5 272.195 172.238 268.179 172.737C264.162 173.236 261.707 171.317 259.728 171.92C257.75 172.524 250.922 171.027 251.753 168.819C252.584 166.61 253.712 165.826 255.375 165.684C257.037 165.541 257.572 163.261 257.572 163.261Z" fill="#A3D1E5"/>
<path d="M251.159 142.954C249.496 144.379 251.456 143.738 252.881 145.163C254.306 146.588 257.293 147.728 258.471 146.018C259.649 144.308 259.234 141.458 260.421 143.667C261.609 145.876 260.025 148.432 259.946 150.721C259.867 153.009 262.574 151.729 263.813 151.367C265.053 151.006 266.596 149.438 268.496 150.293C270.396 151.148 273.246 149.581 276.274 149.866C279.303 150.151 279.845 144.101 281.626 141.002C283.407 137.902 282.55 139.203 288.573 139.399C294.595 139.594 295.965 137.582 296.766 135.017C297.568 132.452 297.828 126.567 289.753 126.995C281.678 127.422 277.759 123.859 275.265 120.012C272.771 116.164 268.393 114.816 264.17 116.915C259.946 119.014 252.584 118.302 251.159 121.01C249.734 123.717 244.034 126.282 245.222 130.842C246.409 135.402 253.751 131.787 255.443 133.99C257.135 136.193 247.161 135.658 246.627 138.009C246.092 140.361 247.161 140.467 249.209 140.681C251.257 140.895 251.159 142.954 251.159 142.954Z" fill="#A3D1E5"/>
<path d="M237.621 150.079C237.423 153.119 239.838 152.074 241.223 154.877C242.609 157.679 239.917 159.484 242.015 161.099C244.113 162.714 246.092 160.339 248.467 160.387C250.842 160.434 250.525 158.059 253.455 158.012C256.384 157.964 256.624 160.245 258.125 157.014C259.627 153.783 257.848 153.642 255.394 152.051C252.94 150.459 252.228 148.417 253.613 147.752C254.998 147.087 253.534 143.904 252.544 143.382C251.554 142.859 245.34 141.957 239.105 143.738C232.871 145.519 228.774 143.382 227.23 145.163C225.687 146.944 222.124 149.153 226.399 150.436C230.674 151.718 233.584 149.296 233.702 152.502C233.821 155.708 223.549 156.92 228.359 158.273C233.168 159.627 237.206 158.131 236.374 155.067C235.543 152.003 237.621 150.079 237.621 150.079Z" fill="#A3D1E5"/>
</g>
<mask id="mask4_925_2768" style="mask-type:luminance" maskUnits="userSpaceOnUse" x="26" y="34" width="247" height="222">
<path d="M220.208 255.197C220.208 255.197 284.108 265.156 270.895 132.072C257.682 -1.01148 140.751 22.1066 101.113 85.8591C61.4757 149.612 -28.9643 207.679 75.064 255.94L220.208 255.197Z" fill="white"/>
</mask>
<g mask="url(#mask4_925_2768)">
<path d="M61.5923 211.111C62.7279 207.402 62.8395 207.62 65.2791 204.746C67.7188 201.873 69.3585 203.799 71.2345 204.409C73.1108 205.019 76.3008 202.631 76.3008 202.631C76.3008 202.631 72.5135 203.679 71.7517 203.431C70.9894 203.182 73.9607 198.213 73.9607 198.213C73.9607 198.213 71.7085 201.77 71.0749 202.534C70.4413 203.298 68.8599 201.91 68.1308 201.824C67.4015 201.739 70.8129 195.354 70.8129 195.354C70.8129 195.354 69.1464 197.81 68.3152 199.501C67.6353 200.885 66.8034 201.095 66.8034 201.095L69.4754 193.385L74.4846 188.556L69.4417 192.681L70.4643 183.531C70.4643 183.531 69.2686 192.559 68.4129 194.811C67.5573 197.064 66.1128 200.968 66.1128 200.968L64.9871 189.845C64.9871 189.845 65.2715 199.951 65.2055 202.047C65.1393 204.143 63.4327 204.836 62.0838 207.682C60.7349 210.528 60.7349 210.528 60.7349 210.528L61.5923 211.111Z" fill="#76BDD6"/>
<path d="M52.0116 249.855C52.5901 242.616 54.5718 236.937 55.4919 232.482C56.4122 228.027 59.6182 217.094 59.6182 217.094L57.9332 215.937C57.9332 215.937 55.675 227.484 54.4494 230.961C53.2237 234.439 53.4492 222.767 52.9111 218.734C52.373 214.7 51.9861 206.811 51.9861 206.811L51.2393 206.618C51.2393 206.618 52.1985 218.349 51.9314 221.176C51.6641 224.003 49.1247 205.672 49.1247 205.672L48.263 205.449C48.263 205.449 50.3038 218.858 50.7785 222.576C51.2528 226.293 51.398 233.52 50.6097 237.91C49.8215 242.299 48.4825 229.671 48.4825 229.671L47.6962 230.366C47.6962 230.366 49.2675 239.005 48.6969 243.207C48.1261 247.408 47.1587 250.098 47.1587 250.098C47.1587 250.098 47.3124 251.732 49.5891 252.221C51.866 252.71 52.0116 249.855 52.0116 249.855Z" fill="#76BDD6"/>
<path d="M51.7245 226.044C50.8362 226.08 50.8416 223.818 49.3165 222.492C47.7911 221.166 46.3317 220.588 45.0126 222.578C43.6935 224.566 42.0279 224.468 41.1672 225.245C40.3064 226.021 37.0445 229.455 38.4855 231.475C39.9262 233.495 40.8522 231.621 43.3629 232.736C45.8738 233.851 47.7652 232.548 48.9448 233.416C50.1244 234.285 54.7689 234.088 54.5866 231.977C54.4046 229.866 53.8027 228.978 52.7532 228.574C51.7037 228.169 51.7245 226.044 51.7245 226.044Z" fill="#A3D1E5"/>
<path d="M59.1174 208.982C59.9612 210.531 58.8 209.632 57.6525 210.667C56.5049 211.701 54.3953 212.221 53.9094 210.498C53.4234 208.774 54.1483 206.299 53.0281 208.073C51.9082 209.847 52.5196 212.394 52.2035 214.451C51.8878 216.507 50.3469 214.912 49.6056 214.383C48.8645 213.853 48.1197 212.196 46.757 212.643C45.3945 213.089 43.8075 211.214 41.8085 210.964C39.8094 210.713 40.4295 205.221 39.7775 202.156C39.1256 199.092 39.4698 200.397 35.5536 199.566C31.6374 198.736 31.0768 196.711 30.9711 194.287C30.8653 191.864 31.641 186.565 36.7814 188.294C41.9215 190.023 45.0205 187.495 47.2461 184.476C49.4716 181.456 52.5123 180.983 54.8997 183.561C57.2873 186.14 62.1507 186.732 62.6359 189.387C63.121 192.042 66.3863 195.283 64.8891 199.157C63.3923 203.031 59.2358 198.578 57.7913 200.263C56.3463 201.947 62.8662 203.134 62.8337 205.322C62.8014 207.511 62.0951 207.428 60.7394 207.277C59.3839 207.127 59.1174 208.982 59.1174 208.982Z" fill="#A3D1E5"/>
<path d="M66.7068 217.602C66.3472 220.349 64.9573 219.013 63.6142 221.285C62.2712 223.556 63.718 225.616 62.1059 226.709C60.4937 227.801 59.5978 225.35 58.058 224.996C56.5186 224.643 57.1036 222.575 55.2216 222.044C53.3399 221.513 52.8191 223.51 52.3688 220.374C51.9183 217.238 53.0882 217.409 54.9263 216.398C56.7645 215.386 57.5515 213.681 56.7646 212.856C55.9776 212.031 57.4327 209.434 58.1546 209.132C58.8769 208.831 63.0303 209.062 66.7661 211.692C70.502 214.322 73.4875 213.097 74.1975 214.945C74.9077 216.793 76.8516 219.359 73.8883 219.791C70.9254 220.224 69.4371 217.575 68.8461 220.418C68.2555 223.261 74.6873 226.056 71.3678 226.463C68.0485 226.869 65.6841 224.86 66.7116 222.263C67.7391 219.666 66.7068 217.602 66.7068 217.602Z" fill="#A3D1E5"/>
</g>
<mask id="mask5_925_2768" style="mask-type:luminance" maskUnits="userSpaceOnUse" x="26" y="34" width="247" height="222">
<path d="M220.208 255.197C220.208 255.197 284.108 265.156 270.895 132.072C257.682 -1.01148 140.751 22.1066 101.113 85.8591C61.4757 149.612 -28.9643 207.679 75.064 255.94L220.208 255.197Z" fill="white"/>
</mask>
<g mask="url(#mask5_925_2768)">
<path d="M107.141 228.328C107.464 226.277 107.545 226.378 108.667 224.618C109.789 222.858 110.869 223.68 111.97 223.792C113.07 223.904 114.653 222.315 114.653 222.315C114.653 222.315 112.623 223.273 112.176 223.227C111.729 223.182 112.972 220.275 112.972 220.275C112.972 220.275 112.012 222.369 111.722 222.835C111.432 223.302 110.431 222.753 110.016 222.788C109.601 222.824 110.97 219.134 110.97 219.134C110.97 219.134 110.245 220.592 109.923 221.561C109.659 222.355 109.212 222.555 109.212 222.555L110.056 218.257L112.451 215.2L109.978 217.894L109.778 213.029C109.778 213.029 109.871 217.85 109.582 219.114C109.293 220.378 108.815 222.564 108.815 222.564L107.247 216.908C107.247 216.908 108.258 222.128 108.398 223.224C108.538 224.32 107.642 224.867 107.127 226.493C106.613 228.12 106.613 228.12 106.613 228.12L107.141 228.328Z" fill="#76BDD6"/>
<path d="M105.049 249.507C104.763 245.682 105.392 242.515 105.531 240.099C105.671 237.684 106.542 231.653 106.542 231.653L105.502 231.236C105.502 231.236 105.212 237.482 104.82 239.423C104.428 241.364 103.57 235.275 102.929 233.238C102.288 231.201 101.406 227.145 101.406 227.145L100.972 227.126C100.972 227.126 102.498 233.117 102.587 234.615C102.676 236.112 99.7098 226.866 99.7098 226.866L99.2091 226.844C99.2091 226.844 101.481 233.588 102.06 235.468C102.639 237.347 103.329 241.086 103.258 243.453C103.188 245.82 101.374 239.405 101.374 239.405L100.993 239.852C100.993 239.852 102.6 244.169 102.635 246.415C102.67 248.66 102.356 250.163 102.356 250.163C102.356 250.163 102.58 250.995 103.894 251.001C105.209 251.005 105.049 249.507 105.049 249.507Z" fill="#76BDD6"/>
<path d="M102.881 237.166C102.388 237.282 102.2 236.106 101.235 235.584C100.27 235.061 99.4049 234.921 98.835 236.099C98.2647 237.276 97.3249 237.407 96.9089 237.905C96.4929 238.402 94.958 240.543 95.9343 241.435C96.9103 242.327 97.2702 241.252 98.7686 241.557C100.267 241.862 101.215 240.978 101.948 241.3C102.681 241.623 105.262 241.012 104.982 239.936C104.703 238.859 104.291 238.463 103.67 238.368C103.049 238.272 102.881 237.166 102.881 237.166Z" fill="#A3D1E5"/>
<path d="M105.577 227.493C106.18 228.206 105.455 227.865 104.9 228.529C104.345 229.191 103.209 229.692 102.792 228.85C102.375 228.007 102.572 226.642 102.095 227.686C101.618 228.731 102.175 229.987 102.171 231.09C102.168 232.193 101.172 231.533 100.712 231.339C100.253 231.145 99.6969 230.365 98.9724 230.746C98.2479 231.127 97.2022 230.327 96.0629 230.415C94.9238 230.503 94.8075 227.582 94.1844 226.061C93.5615 224.54 93.864 225.18 91.6037 225.177C89.3432 225.174 88.8591 224.183 88.5955 222.935C88.3319 221.687 88.3191 218.849 91.34 219.186C94.3607 219.522 95.8809 217.87 96.8712 216.058C97.8614 214.246 99.5223 213.667 101.075 214.746C102.628 215.825 105.398 215.601 105.893 216.927C106.388 218.254 108.488 219.58 107.977 221.757C107.467 223.933 104.766 222.074 104.1 223.107C103.434 224.14 107.181 224.044 107.347 225.185C107.514 226.326 107.112 226.36 106.341 226.43C105.57 226.5 105.577 227.493 105.577 227.493Z" fill="#A3D1E5"/>
<path d="M110.549 231.142C110.58 232.608 109.69 232.066 109.13 233.393C108.57 234.72 109.553 235.632 108.744 236.376C107.934 237.12 107.226 235.945 106.335 235.929C105.445 235.914 105.597 234.775 104.5 234.705C103.403 234.635 103.28 235.729 102.764 234.149C102.247 232.569 102.916 232.531 103.859 231.804C104.802 231.077 105.098 230.105 104.589 229.763C104.079 229.42 104.674 227.911 105.052 227.676C105.431 227.44 107.773 227.106 110.085 228.064C112.396 229.023 113.962 228.06 114.515 228.942C115.069 229.825 116.372 230.945 114.751 231.494C113.13 232.042 112.074 230.829 111.984 232.371C111.893 233.913 115.726 234.662 113.904 235.236C112.082 235.81 110.59 235.024 110.945 233.563C111.301 232.101 110.549 231.142 110.549 231.142Z" fill="#A3D1E5"/>
</g>
<mask id="mask6_925_2768" style="mask-type:luminance" maskUnits="userSpaceOnUse" x="26" y="34" width="247" height="222">
<path d="M220.208 255.197C220.208 255.197 284.108 265.156 270.895 132.072C257.682 -1.01148 140.751 22.1066 101.113 85.8591C61.4757 149.612 -28.9643 207.679 75.064 255.94L220.208 255.197Z" fill="white"/>
</mask>
<g mask="url(#mask6_925_2768)">
<path d="M149.386 232.756C147.16 236.436 144.844 230.454 135.761 236.31C126.677 242.166 121.151 232.851 116.152 238.4C111.152 243.949 107.615 248.6 102.365 247.464C97.1138 246.328 93.9758 241.915 87.5349 241.446C81.0937 240.977 59.2928 227.626 53.017 239.256C46.7412 250.886 44.0985 237.277 35.1801 242.892C26.2616 248.508 15.2786 236.31 15.2786 236.31V255.94H144.019L153.68 237.905L149.386 232.756Z" fill="#A3D1E5"/>
</g>
<mask id="mask7_925_2768" style="mask-type:luminance" maskUnits="userSpaceOnUse" x="26" y="34" width="247" height="222">
<path d="M220.208 255.197C220.208 255.197 284.108 265.156 270.895 132.072C257.682 -1.01148 140.751 22.1066 101.113 85.8591C61.4757 149.612 -28.9643 207.679 75.064 255.94L220.208 255.197Z" fill="white"/>
</mask>
<g mask="url(#mask7_925_2768)">
<path d="M151.556 241.871C146.781 238.389 141.74 238.215 137.034 242.893C132.327 247.57 127.249 242.262 122.666 245.436C118.083 248.61 113.872 249.205 109.165 251.88C104.458 254.556 94.4251 249.857 90.7094 247.598C86.9935 245.34 78.4471 246.318 74.2359 247.464C70.0246 248.61 67.0517 238.513 61.8497 242.893C56.6474 247.273 65.3179 252.293 62.593 252.681C59.8678 253.069 48.968 245.935 46.1192 248.611C43.2704 251.286 44.2613 245.638 40.05 249.354C35.8388 253.07 28.8891 257.231 27.2923 250.394C25.6953 243.557 27.7877 236.671 22.7094 232.757C17.6311 228.842 17.507 231.666 21.5945 240.584C25.6819 249.502 23.4526 248.016 20.1082 247.867C16.7639 247.719 15.279 243.557 15.279 243.557V255.94H165.489L151.556 241.871Z" fill="#76BDD6"/>
</g>
<mask id="mask8_925_2768" style="mask-type:luminance" maskUnits="userSpaceOnUse" x="26" y="34" width="247" height="222">
<path d="M220.208 255.197C220.208 255.197 284.108 265.156 270.895 132.072C257.682 -1.01148 140.751 22.1066 101.113 85.8591C61.4757 149.612 -28.9643 207.679 75.064 255.94L220.208 255.197Z" fill="white"/>
</mask>
<g mask="url(#mask8_925_2768)">
<path d="M144.885 255.94H275.024V187.025C259.872 191.947 210.119 190.951 195.447 205.513C175.7 225.113 168.814 198.514 157.063 213.679C154.13 217.464 151.903 221.991 150.211 226.655C149.374 228.963 148.668 231.305 148.073 233.606C148.073 233.606 148.073 233.611 148.07 233.62C147.825 234.567 147.6 235.508 147.391 236.436C145.026 246.954 144.885 255.94 144.885 255.94Z" fill="#AF7A2E"/>
</g>
<mask id="mask9_925_2768" style="mask-type:luminance" maskUnits="userSpaceOnUse" x="26" y="34" width="247" height="222">
<path d="M220.208 255.197C220.208 255.197 284.108 265.156 270.895 132.072C257.682 -1.01148 140.751 22.1066 101.113 85.8591C61.4757 149.612 -28.9643 207.679 75.064 255.94L220.208 255.197Z" fill="white"/>
</mask>
<g mask="url(#mask9_925_2768)">
<path d="M149.061 234.341C150.533 233.109 153.838 236.719 155.278 234.936C156.718 233.152 159.706 239.395 161.752 237.909C163.799 236.422 167.483 239.692 170.758 234.49C174.033 229.287 178.263 237.909 182.494 236.125C186.723 234.341 185.358 240.287 188.224 239.098C191.09 237.909 190.135 236.571 190.135 233.301C190.135 230.031 194.911 232.112 197.612 229.882C200.313 227.652 202.143 234.787 205.717 233.449C209.293 232.112 209.648 238.652 212.618 236.571C215.588 234.49 218.517 236.571 218.125 233.295C217.734 230.019 219.336 230.179 224.059 227.389C228.783 224.597 230.661 232.112 233.39 230.625C236.12 229.139 245.671 234.193 246.509 233.152C247.347 232.112 249.765 231.814 252.32 228.952C254.876 226.091 258.907 234.193 261.969 231.665C265.031 229.139 268.596 232.409 269.941 231.071C271.286 229.733 270.37 229.882 271.173 227.504C271.976 225.125 275.024 225.571 275.024 221.483V187.024C259.872 191.947 210.119 190.951 195.447 205.512C175.7 225.112 168.814 198.513 157.063 213.679C154.131 217.463 151.903 221.99 150.211 226.654C149.374 228.962 148.668 231.305 148.073 233.606C148.073 233.606 148.073 233.611 148.07 233.62C148.031 233.793 147.663 235.51 149.061 234.341Z" fill="#934C11"/>
</g>
<mask id="mask10_925_2768" style="mask-type:luminance" maskUnits="userSpaceOnUse" x="26" y="34" width="247" height="222">
<path d="M220.208 255.197C220.208 255.197 284.108 265.156 270.895 132.072C257.682 -1.01148 140.751 22.1066 101.113 85.8591C61.4757 149.612 -28.9643 207.679 75.064 255.94L220.208 255.197Z" fill="white"/>
</mask>
<g mask="url(#mask10_925_2768)">
<path d="M150.212 226.655C150.978 229.343 153.41 229.367 157.031 224.527C161.034 219.176 161.216 230.869 164.673 226.311C168.13 221.752 171.041 228.887 174.316 227.586C177.591 226.285 181.048 231.464 185.415 227.302C189.782 223.14 193.239 228.887 194.148 227.302C195.058 225.716 193.421 224.527 193.057 220.365C192.693 216.203 195.786 219.969 197.606 218.383C199.425 216.798 203.792 222.546 206.157 221.483C208.522 220.42 218.348 224.924 220.167 221.483C221.986 218.042 216.71 216.402 217.62 215.609C218.529 214.816 227.991 218.582 231.266 217.194C234.541 215.807 236.542 223.735 237.998 223.933C239.454 224.131 243.82 227.5 247.095 225.122C250.371 222.744 244.002 219.969 245.094 217.591C246.186 215.213 252.372 220.96 255.283 218.385C258.194 215.809 261.651 217.987 262.561 221.483C263.471 224.978 264.38 225.122 266.2 219.374C268.019 213.627 272.568 220.365 275.024 212.834V187.025C259.873 191.947 210.119 190.951 195.448 205.513C175.701 225.113 168.814 198.514 157.063 213.679C156.436 214.488 155.842 215.33 155.278 216.201C153.203 219.405 151.542 222.987 150.212 226.655Z" fill="#8ECC36"/>
</g>
<mask id="mask11_925_2768" style="mask-type:luminance" maskUnits="userSpaceOnUse" x="26" y="34" width="247" height="222">
<path d="M220.208 255.197C220.208 255.197 284.108 265.156 270.895 132.072C257.682 -1.01148 140.751 22.1066 101.113 85.8591C61.4757 149.612 -28.9643 207.679 75.064 255.94L220.208 255.197Z" fill="white"/>
</mask>
<g mask="url(#mask11_925_2768)">
<path d="M155.278 216.201C155.626 219.762 158.204 218.586 158.122 216.059C158.041 213.532 162.162 216.951 165.163 213.83C168.165 210.708 165.709 218.586 168.029 216.357C170.349 214.127 173.351 219.478 174.715 218.14C176.08 216.802 178.946 220.964 180.72 219.181C182.494 217.397 183.994 221.708 184.54 221.483C185.086 221.257 189.862 221.41 190.271 218.883C190.68 216.356 189.862 217.248 190.271 216.059C190.681 214.87 196.412 214.127 198.186 212.492C199.96 210.857 201.324 215.019 202.688 214.127C204.053 213.235 205.008 218.883 206.646 217.991C208.283 217.1 208.489 221.424 211.558 219.775C214.628 218.125 212.513 219.181 211.831 215.762C211.149 212.343 210.33 212.492 211.831 210.708C213.332 208.924 220.427 210.56 220.427 210.56C220.427 210.56 224.248 211.154 224.521 210.411C224.794 209.668 226.568 211.749 227.25 210.857C227.932 209.965 229.297 212.046 230.252 210.708C231.208 209.37 237.62 216.802 237.62 214.573C237.62 212.343 234.483 207.884 235.847 205.506C237.212 203.127 243.215 212.492 245.262 209.965C247.309 207.438 248.401 213.235 250.721 212.194C253.04 211.154 257.133 212.492 257.133 209.965C257.133 207.438 256.042 206.397 256.588 204.376C257.133 202.354 261.637 208.181 264.366 205.357C267.095 202.533 268.733 208.479 270.916 205.357C272.293 203.387 273.834 204.14 275.024 204.087V187.024C259.873 191.947 210.119 190.951 195.448 205.512C175.701 225.112 168.814 198.513 157.063 213.679C156.436 214.488 155.842 215.33 155.278 216.201Z" fill="#ACEF4B"/>
</g>
<mask id="mask12_925_2768" style="mask-type:luminance" maskUnits="userSpaceOnUse" x="26" y="34" width="247" height="222">
<path d="M220.208 255.197C220.208 255.197 284.108 265.156 270.895 132.072C257.682 -1.01148 140.751 22.1066 101.113 85.8591C61.4757 149.612 -28.9643 207.679 75.064 255.94L220.208 255.197Z" fill="white"/>
</mask>
<g mask="url(#mask12_925_2768)">
<path d="M271.743 187.236C271.679 187.909 269.815 181.932 267.885 184.546C265.954 187.159 264.575 183.845 263.61 185.585C262.645 187.325 261.128 185.93 260.301 187.289C259.474 188.648 258.922 185.93 257.957 187.289C256.992 188.648 256.165 185.888 254.51 187.682C252.855 189.476 251.476 185.173 250.511 186.497C249.546 187.821 246.237 185.013 244.858 186.003C243.479 186.994 241.135 184.02 240.721 186.003C240.308 187.986 243.317 186.997 242.1 189.454C240.883 191.912 239.522 188.472 238.416 190.415C237.31 192.357 236.723 190.191 236.309 190.743C235.895 191.296 235.783 187.55 233.965 189.186C232.146 190.821 230.242 188.148 229.415 188.977C228.587 189.806 227.622 188.304 226.795 189.8C225.968 191.296 223.348 189.198 222.107 190.743C220.866 192.288 219.487 190.572 218.66 192.175C217.832 193.778 220.666 193.403 218.66 194.666C216.653 195.929 213.792 192.079 212.731 194.666C211.669 197.252 210.662 194.041 209.146 195.481C207.629 196.921 206.664 194.004 205.56 195.711C204.457 197.418 202.803 194.398 201.7 196.57C200.597 198.741 199.218 197.994 198.942 199.361C198.666 200.727 198.28 200.696 197.425 202.59C196.57 204.485 195.566 202.904 194.805 204.876C194.045 206.847 193.703 204.138 192.737 206.449C191.771 208.76 189.704 207.255 189.014 208.21C188.325 209.165 187.084 206.097 186.394 208.21C185.705 210.324 183.637 209.166 183.085 210.324C182.534 211.482 181.706 209 180.879 210.324C180.052 211.647 176.339 209.281 175.777 210.642C175.215 212.002 173.902 208.167 173.351 209.325C172.799 210.483 172.891 208.056 171.972 208.994C171.053 209.931 170.961 207.78 170.685 207.836C170.409 207.891 168.709 207.229 168.479 207.836C168.249 208.442 167.33 206.512 167.054 207.229C166.778 207.946 165.261 206.512 165.629 207.119C165.997 207.725 166.181 207.174 165.997 207.725C165.813 208.277 164.894 208.034 164.664 208.21C164.434 208.387 164.028 207.547 163.68 208.022C163.331 208.498 163.239 209.49 163.239 209.49C163.239 209.49 166.089 210.263 166.824 210.538C167.56 210.814 175.364 215.784 183.223 214.46C191.083 213.137 203.492 206.449 203.492 206.449L270.059 189.616L271.959 188.181L271.743 187.236Z" fill="#ACEF4B"/>
</g>
<mask id="mask13_925_2768" style="mask-type:luminance" maskUnits="userSpaceOnUse" x="26" y="34" width="247" height="222">
<path d="M220.208 255.197C220.208 255.197 284.108 265.156 270.895 132.072C257.682 -1.01148 140.751 22.1066 101.113 85.8591C61.4757 149.612 -28.9643 207.679 75.064 255.94L220.208 255.197Z" fill="white"/>
</mask>
<g mask="url(#mask13_925_2768)">
<path d="M269.93 230.175C270.021 235.13 270.749 255.94 270.749 255.94H269.93C269.93 255.94 269.02 232.455 268.11 230.77C267.2 229.086 264.562 229.415 263.834 228.953C263.107 228.491 260.832 227.995 260.832 227.995V250.192L259.013 227.995L255.101 226.014L248.187 228.953L249.46 252.075C249.46 252.075 247.823 234.139 245.731 232.554C243.638 230.968 242.455 230.176 242.455 230.176L235.723 228.095L237.27 255.94H234.905L232.278 226.014C232.278 226.014 224.933 223.933 222.186 225.419C219.439 226.905 215.739 230.671 215.739 230.671V233.347L216.619 251.679L213.071 233.545L220.013 224.085H227.622L243.786 228.953C243.786 228.953 265.321 224.383 265.867 224.68C266.413 224.977 269.941 227.653 269.941 227.653L269.93 230.175Z" fill="#934C11"/>
</g>
<mask id="mask14_925_2768" style="mask-type:luminance" maskUnits="userSpaceOnUse" x="26" y="34" width="247" height="222">
<path d="M220.208 255.197C220.208 255.197 284.108 265.156 270.895 132.072C257.682 -1.01148 140.751 22.1066 101.113 85.8591C61.4757 149.612 -28.9643 207.679 75.064 255.94L220.208 255.197Z" fill="white"/>
</mask>
<g mask="url(#mask14_925_2768)">
<path d="M192.895 227.801L193.762 253.664C193.762 253.664 191.837 231.602 191.171 231.266C190.505 230.929 188.445 229.581 188.033 229.878C187.62 230.175 184.564 232.653 184.069 232.752C183.573 232.851 183.408 237.608 183.408 237.608L183.821 255.94H182.417L181.757 234.932L176.967 233.148L175.646 233.247L174.242 249.499L173.003 230.869L168.792 230.473L166.645 232.454L165.406 235.428L164.333 254.057L162.929 234.536L160.369 234.04L157.396 233.842L156.818 255.94L155.91 232.455L152.937 232.157L151.615 232.356L148.477 255.94L149.72 231.365L155.331 229.977L162.103 230.374L167.471 230.176L171.12 229.482L177.463 230.275L181.096 231.067L186.298 229.977L188.61 229.383L191.996 228.292L192.895 227.801Z" fill="#934C11"/>
</g>
<mask id="mask15_925_2768" style="mask-type:luminance" maskUnits="userSpaceOnUse" x="26" y="34" width="247" height="222">
<path d="M220.208 255.197C220.208 255.197 284.108 265.156 270.895 132.072C257.682 -1.01148 140.751 22.1066 101.113 85.8591C61.4757 149.612 -28.9643 207.679 75.064 255.94L220.208 255.197Z" fill="white"/>
</mask>
<g mask="url(#mask15_925_2768)">
<path d="M273.113 231.662C273.204 228.59 273.75 227.5 275.024 226.509V255.94H272.568C272.568 255.94 272.022 237.013 272.022 234.139C272.022 231.266 273.022 234.734 273.113 231.662Z" fill="#C69738"/>
<path d="M265.835 235.427C267.746 238.598 268.019 255.94 268.019 255.94H262.651C262.651 255.94 262.105 249.102 262.105 241.67C262.105 234.238 263.925 232.256 265.835 235.427Z" fill="#C69738"/>
<path d="M257.011 234.04C258.558 236.716 260.286 255.94 260.286 255.94H249.915C249.915 255.94 250.279 235.923 251.007 233.347C251.735 230.77 255.464 231.364 257.011 234.04Z" fill="#C69738"/>
<path d="M245.912 236.022C247.004 238.202 249.915 255.94 249.915 255.94H238.634C238.634 255.94 236.997 239.094 238.634 234.833C240.272 230.572 244.82 233.842 245.912 236.022Z" fill="#C69738"/>
<path d="M219.803 239.256C221.076 238.923 219.712 233.941 221.349 231.265C222.987 228.59 226.353 229.284 229.264 231.364C232.175 233.445 232.266 255.94 232.266 255.94H217.801C217.801 255.94 218.62 251.481 218.62 247.418C218.62 243.355 218.529 239.589 219.803 239.256Z" fill="#C69738"/>
<path d="M200.425 232.851C200.88 233.644 204.701 235.229 206.156 235.229C207.612 235.229 206.884 237.112 208.521 238.103C210.159 239.094 212.069 239.094 213.07 241.87C214.071 244.647 217.801 255.94 217.801 255.94H199.242C199.242 255.94 199.97 232.058 200.425 232.851Z" fill="#C69738"/>
<path d="M191.601 240.012C192.602 238.156 192.608 231.231 194.057 233.247C195.506 235.264 199.243 255.94 199.243 255.94H188.872C188.872 255.94 189.235 250.192 189.599 247.418C189.963 244.643 190.6 241.869 191.601 240.012Z" fill="#C69738"/>
<path d="M170.859 238.4C172.042 234.833 174.407 234.932 174.407 234.932L177.045 254.949L179.865 238.202C179.865 238.202 181.321 238.995 183.141 238.301C184.96 237.607 184.687 255.94 184.687 255.94H166.31L168.676 241.224C168.676 241.224 169.676 241.967 170.859 238.4Z" fill="#C69738"/>
<path d="M160.67 240.012C162.034 240.436 163.672 239.256 163.672 239.256L166.31 255.94H158.85L159.305 239.589C159.305 239.589 159.305 239.589 160.67 240.012Z" fill="#C69738"/>
<path d="M154.574 237.905C155.757 237.608 155.848 236.914 155.848 236.914L156.788 255.94H149.843C149.843 255.94 151.299 252.472 152.3 247.022C153.3 241.571 153.391 238.202 154.574 237.905Z" fill="#C69738"/>
<path d="M147.391 236.436C148.38 235.847 148.843 237.508 148.843 237.508L147.205 255.94H144.884C144.884 255.94 145.026 246.954 147.391 236.436Z" fill="#C69738"/>
</g>
<mask id="mask16_925_2768" style="mask-type:luminance" maskUnits="userSpaceOnUse" x="26" y="34" width="247" height="222">
<path d="M220.208 255.197C220.208 255.197 284.108 265.156 270.895 132.072C257.682 -1.01148 140.751 22.1066 101.113 85.8591C61.4757 149.612 -28.9643 207.679 75.064 255.94L220.208 255.197Z" fill="white"/>
</mask>
<g mask="url(#mask16_925_2768)">
<path d="M138.513 255.94H145.313C145.313 255.94 149.689 255.94 149.772 255.94H169.737V252.868C169.737 252.868 164.003 252.142 163.562 252.142C163.122 252.142 156.296 251.084 156.075 251.018C155.855 250.952 151.011 248.838 151.011 248.838L148.148 248.111C148.148 248.111 145.2 246.922 144.885 246.724C144.57 246.526 143.909 244.874 143.909 244.874L140.881 242.892C139.064 244.148 139.174 245.429 139.147 247.464C139.119 249.499 139.339 250.16 139.147 251.612C138.954 253.066 138.513 255.94 138.513 255.94Z" fill="#934C11"/>
</g>
<mask id="mask17_925_2768" style="mask-type:luminance" maskUnits="userSpaceOnUse" x="26" y="34" width="247" height="222">
<path d="M220.208 255.197C220.208 255.197 284.108 265.156 270.895 132.072C257.682 -1.01148 140.751 22.1066 101.113 85.8591C61.4757 149.612 -28.9643 207.679 75.064 255.94L220.208 255.197Z" fill="white"/>
</mask>
<g mask="url(#mask17_925_2768)">
<path d="M165.709 250.159C162.021 251.745 162.076 250.159 160.947 250.556C159.819 250.952 159.874 248.904 158.057 249.234C156.24 249.565 157.726 245.631 155.69 247.598C153.653 249.565 152.607 249.433 151.946 247.98C151.286 246.526 151.84 245.444 149.784 246.125C147.728 246.806 146.551 245.596 146.056 246.125C145.56 246.654 145.684 246.218 145.684 246.218L146.332 241.841C146.332 241.841 143.634 240.915 143.523 241.871C143.413 242.826 140.881 242.628 140.881 242.893C140.881 243.157 140.551 244.61 140.881 245.865C141.211 247.121 142.643 246.424 142.312 247.598C141.982 248.772 140.606 248.838 141.872 250.027C143.138 251.217 144.68 251.15 145.616 251.613C146.551 252.075 146.493 251.191 147.71 251.877C148.928 252.563 149.029 251.15 150.901 251.877C152.772 252.604 154.809 251.283 157.286 252.538C159.764 253.793 159.672 252.776 163.957 253.317C168.242 253.859 170.829 252.934 169.288 252.472C167.747 252.009 165.875 252.604 166.48 251.547C167.086 250.49 165.709 250.159 165.709 250.159Z" fill="#8ECC36"/>
</g>
<mask id="mask18_925_2768" style="mask-type:luminance" maskUnits="userSpaceOnUse" x="26" y="34" width="247" height="222">
<path d="M220.208 255.197C220.208 255.197 284.108 265.156 270.895 132.072C257.682 -1.01148 140.751 22.1066 101.113 85.8591C61.4757 149.612 -28.9643 207.679 75.064 255.94L220.208 255.197Z" fill="white"/>
</mask>
<g mask="url(#mask18_925_2768)">
<path d="M163.369 255.939H169.108C169.138 255.092 169.152 254.469 169.152 254.469C167.492 255.46 166.976 254.981 165.489 254.618C164.003 254.255 163.397 254.556 163.369 254.901C163.342 255.246 163.369 255.939 163.369 255.939Z" fill="#AF7A2E"/>
<path d="M153.956 255.94H162.764C162.764 255.94 162.985 254.618 161.36 254.453C159.736 254.288 159.434 254.453 158.002 254.321C156.571 254.189 154.864 253.759 154.451 254.42C154.038 255.08 153.956 255.94 153.956 255.94Z" fill="#AF7A2E"/>
<path d="M149.772 255.939H153.158C153.158 255.939 153.268 254.222 152.662 253.891C152.056 253.561 150.983 252.709 150.35 253.482C149.717 254.255 149.855 255.939 149.772 255.939Z" fill="#AF7A2E"/>
<path d="M141.734 255.94H145.313C145.313 255.94 145.202 252.769 145.01 252.34C144.817 251.909 142.56 250.952 142.34 252.34C142.12 253.727 141.734 255.94 141.734 255.94Z" fill="#AF7A2E"/>
<path d="M138.679 255.94H140.413C140.413 255.94 141.156 249.895 140.964 249.697C140.771 249.498 141.046 248.706 141.459 248.144C141.872 247.583 140.771 246.625 140.413 249.416C140.055 252.207 138.679 255.94 138.679 255.94Z" fill="#AF7A2E"/>
</g>
<g opacity="0.5">
<path d="M72.2243 258.746H169.226L166.66 255.61H74.3192L72.2243 258.746Z" fill="#545454"/>
<path opacity="0.9821" d="M71.9647 259.133H169.542L166.933 255.944H74.0947L71.9647 259.133Z" fill="#545454"/>
<path opacity="0.9643" d="M71.7068 259.52H169.858L167.207 256.28H73.8709L71.7068 259.52Z" fill="#545454"/>
<path opacity="0.9464" d="M71.4484 259.906H170.174L167.482 256.615H73.6473L71.4484 259.906Z" fill="#545454"/>
<path opacity="0.9286" d="M71.1898 260.292H170.49L167.755 256.95H73.4229L71.1898 260.292Z" fill="#545454"/>
<path opacity="0.9107" d="M70.9306 260.679H170.806L168.029 257.285H73.1991L70.9306 260.679Z" fill="#545454"/>
<path opacity="0.8929" d="M70.6723 261.066H171.123L168.303 257.62H72.9753L70.6723 261.066Z" fill="#545454"/>
<path opacity="0.875" d="M70.414 261.453H171.439L168.578 257.955H72.7517L70.414 261.453Z" fill="#545454"/>
<path opacity="0.8571" d="M70.1548 261.84H171.755L168.851 258.291H72.5268L70.1548 261.84Z" fill="#545454"/>
<path opacity="0.8393" d="M69.8963 262.226H172.071L169.125 258.625H72.3033L69.8963 262.226Z" fill="#545454"/>
<path opacity="0.8214" d="M69.6379 262.613H172.388L169.4 258.96H72.0795L69.6379 262.613Z" fill="#545454"/>
<path opacity="0.8036" d="M69.379 263H172.704L169.673 259.295H71.8551L69.379 263Z" fill="#545454"/>
<path opacity="0.7857" d="M69.121 263.386H173.02L169.947 259.63H71.6319L69.121 263.386Z" fill="#545454"/>
<path opacity="0.7679" d="M68.8621 263.772H173.336L170.221 259.965H71.4077L68.8621 263.772Z" fill="#545454"/>
<path opacity="0.75" d="M68.6034 264.159H173.653L170.495 260.3H71.1833L68.6034 264.159Z" fill="#545454"/>
<path opacity="0.7321" d="M68.3447 264.546H173.968L170.769 260.635H70.9593L68.3447 264.546Z" fill="#545454"/>
<path opacity="0.7143" d="M68.0866 264.933H174.285L171.044 260.97H70.7355L68.0866 264.933Z" fill="#545454"/>
<path opacity="0.6964" d="M67.8281 265.32H174.602L171.317 261.305H70.5119L67.8281 265.32Z" fill="#545454"/>
<path opacity="0.6786" d="M67.5686 265.706H174.917L171.591 261.64H70.288L67.5686 265.706Z" fill="#545454"/>
<path opacity="0.6607" d="M67.31 266.093H175.233L171.865 261.975H70.0636L67.31 266.093Z" fill="#545454"/>
<path opacity="0.6429" d="M67.0516 266.48H175.55L172.139 262.311H69.8393L67.0516 266.48Z" fill="#545454"/>
<path opacity="0.625" d="M66.7934 266.867H175.866L172.414 262.645H69.6159L66.7934 266.867Z" fill="#545454"/>
<path opacity="0.6071" d="M66.5345 267.254H176.182L172.687 262.98H69.3912L66.5345 267.254Z" fill="#545454"/>
<path opacity="0.5893" d="M66.2764 267.639H176.499L172.962 263.314H69.168L66.2764 267.639Z" fill="#545454"/>
<path opacity="0.5714" d="M66.0175 268.026H176.814L173.235 263.65H68.9433L66.0175 268.026Z" fill="#545454"/>
<path opacity="0.5536" d="M65.7582 268.413H177.131L173.509 263.985H68.7194L65.7582 268.413Z" fill="#545454"/>
<path opacity="0.5357" d="M65.5003 268.8H177.447L173.784 264.32H68.4957L65.5003 268.8Z" fill="#545454"/>
<path opacity="0.5179" d="M65.2417 269.186H177.764L174.058 264.655H68.2721L65.2417 269.186Z" fill="#545454"/>
<path opacity="0.5" d="M64.9827 269.573H178.08L174.332 264.99H68.0475L64.9827 269.573Z" fill="#545454"/>
<path opacity="0.4821" d="M64.7246 269.959H178.396L174.605 265.324H67.824L64.7246 269.959Z" fill="#545454"/>
<path opacity="0.4643" d="M64.4662 270.346H178.712L174.88 265.66H67.6006L64.4662 270.346Z" fill="#545454"/>
<path opacity="0.4464" d="M64.2075 270.733H179.028L175.153 265.995H67.3761L64.2075 270.733Z" fill="#545454"/>
<path opacity="0.4286" d="M63.9485 271.12H179.344L175.428 266.33H67.1524L63.9485 271.12Z" fill="#545454"/>
<path opacity="0.4107" d="M63.69 271.507H179.661L175.701 266.666H66.9283L63.69 271.507Z" fill="#545454"/>
<path opacity="0.3929" d="M63.4313 271.893H179.977L175.976 267H66.7044L63.4313 271.893Z" fill="#545454"/>
<path opacity="0.375" d="M63.1725 272.28H180.293L176.249 267.335H66.48L63.1725 272.28Z" fill="#545454"/>
<path opacity="0.3571" d="M62.9144 272.666H180.61L176.524 267.67H66.2561L62.9144 272.666Z" fill="#545454"/>
<path opacity="0.3393" d="M62.655 273.053H180.925L176.797 268.005H66.0321L62.655 273.053Z" fill="#545454"/>
<path opacity="0.3214" d="M62.3972 273.439H181.242L177.071 268.34H65.8084L62.3972 273.439Z" fill="#545454"/>
<path opacity="0.3036" d="M62.1392 273.827H181.559L177.345 268.675H65.5846L62.1392 273.827Z" fill="#545454"/>
<path opacity="0.2857" d="M61.8798 274.213H181.874L177.62 269.011H65.3609L61.8798 274.213Z" fill="#545454"/>
<path opacity="0.2679" d="M61.6207 274.6H182.19L177.893 269.345H65.1359L61.6207 274.6Z" fill="#545454"/>
<path opacity="0.25" d="M61.3626 274.986H182.507L178.167 269.68H64.9127L61.3626 274.986Z" fill="#545454"/>
<path opacity="0.2321" d="M61.1039 275.374H182.822L178.441 270.016H64.6882L61.1039 275.374Z" fill="#545454"/>
<path opacity="0.2143" d="M60.8453 275.759H183.139L178.715 270.35H64.4644L60.8453 275.759Z" fill="#545454"/>
<path opacity="0.1964" d="M60.5872 276.146H183.456L178.99 270.685H64.2408L60.5872 276.146Z" fill="#545454"/>
<path opacity="0.1786" d="M60.328 276.533H183.772L179.264 271.021H64.017L60.328 276.533Z" fill="#545454"/>
<path opacity="0.1607" d="M60.0694 276.92H184.087L179.538 271.355H63.7923L60.0694 276.92Z" fill="#545454"/>
<path opacity="0.1429" d="M59.8109 277.306H184.404L179.811 271.69H63.5687L59.8109 277.306Z" fill="#545454"/>
<path opacity="0.125" d="M59.5524 277.693H184.72L180.085 272.025H63.3444L59.5524 277.693Z" fill="#545454"/>
<path opacity="0.1071" d="M59.2939 278.08H185.037L180.36 272.36H63.121L59.2939 278.08Z" fill="#545454"/>
<path opacity="0.0893" d="M59.0351 278.467H185.352L180.633 272.695H62.8969L59.0351 278.467Z" fill="#545454"/>
<path opacity="0.0714" d="M58.7769 278.853H185.669L180.908 273.03H62.673L58.7769 278.853Z" fill="#545454"/>
<path opacity="0.0536" d="M58.5173 279.24H185.985L181.181 273.364H62.4483L58.5173 279.24Z" fill="#545454"/>
<path opacity="0.0357" d="M58.259 279.627H186.301L181.455 273.7H62.2246L58.259 279.627Z" fill="#545454"/>
<path opacity="0.0179" d="M58.0011 280.013H186.618L181.73 274.035H62.0011L58.0011 280.013Z" fill="#545454"/>
</g>
<path d="M120.424 162.984H123.801V257.258H120.424V162.984Z" fill="#4C4C4C"/>
<path d="M88.6918 208.094H151.234V212.147H88.6918V208.094Z" fill="#5D5D5D"/>
<path d="M164.398 257.258H168.026L136.582 158.572H132.954L164.398 257.258Z" fill="#5D5D5D"/>
<path d="M76.1522 257.258H72.5239L103.968 158.572H107.596L76.1522 257.258Z" fill="#5D5D5D"/>
<path d="M65.0225 79.7603H175.527V171.52H65.0225V79.7603Z" fill="#5D5D5D"/>
<path d="M67.6136 82.8701H172.936V168.41H67.6136V82.8701Z" fill="white"/>
<path d="M151.734 140.188H160.707V160.443H151.734V140.188Z" fill="#FF0000"/>
<path d="M137.031 124.217H146.004V160.444H137.031V124.217Z" fill="#FF0000"/>
<path d="M122.328 131.978H131.301V160.444H122.328V131.978Z" fill="#FF0000"/>
<path d="M107.625 125.838H116.598V160.444H107.625V125.838Z" fill="#FF0000"/>
<path d="M92.9222 111.08H101.895V160.444H92.9222V111.08Z" fill="#FF0000"/>
<path d="M123.181 91.6421H168.826V93.819H123.181V91.6421Z" fill="#A3D1E5"/>
<path d="M123.181 96.0996H168.826V98.2765H123.181V96.0996Z" fill="#A3D1E5"/>
<path d="M148.91 100.557H168.826V102.734H148.91V100.557Z" fill="#A3D1E5"/>
<path d="M71.5881 109.252H89.0547V111.429H71.5881V109.252Z" fill="#8ECC36"/>
<path d="M71.5881 113.71H89.0547V115.887H71.5881V113.71Z" fill="#8ECC36"/>
<path d="M81.4334 118.167H89.0547V120.344H81.4334V118.167Z" fill="#8ECC36"/>
<path d="M168.826 132.808L138.961 107.648L128.336 123.69L91.1109 95.0112" stroke="#8ECC36" stroke-width="17.4327" stroke-miterlimit="10" stroke-linejoin="bevel"/>
<path d="M98.7373 93.7508L86.4718 91.1758L92.9893 102.948L98.7373 93.7508Z" fill="#8ECC36"/>
<path d="M210.547 85.1696C212.125 82.0384 213.839 79.9083 215.561 80.3041C217.283 80.6999 218.682 75.8749 216.466 76.317C214.25 76.759 214.818 79.6156 215.961 78.0535C217.104 76.4915 216.226 74.9885 214.9 74.9724C212.798 74.9467 213.104 79.4603 214.202 77.1398C215.3 74.8193 214.017 72.351 212.562 73.686C211.106 75.0212 211.087 77.741 212.167 76.3041C213.247 74.867 212.462 72.4714 211.315 73.6887C210.167 74.906 210.874 77.6713 210.938 78.9563C211.002 80.2413 208.957 84.0161 208.957 84.0161" stroke="#FFCE00" stroke-width="4.02292" stroke-miterlimit="10"/>
<path d="M206.847 84.0126L211.964 87.7261L211.363 88.9178L206.246 85.2043L206.847 84.0126Z" stroke="#A4D1E4" stroke-width="4.02292" stroke-miterlimit="10" stroke-linejoin="bevel"/>
<path d="M205.759 86.1718L210.875 89.8853L210.275 91.0769L205.158 87.3635L205.759 86.1718Z" stroke="#A4D1E4" stroke-width="4.02292" stroke-miterlimit="10" stroke-linejoin="bevel"/>
<path d="M204.66 88.3525L209.776 92.0659L209.176 93.2575L204.059 89.5441L204.66 88.3525Z" stroke="#A4D1E4" stroke-width="4.02292" stroke-miterlimit="10" stroke-linejoin="bevel"/>
<path d="M204.871 91.6587L207.239 93.377L206.638 94.5686L204.271 92.8504L204.871 91.6587Z" stroke="#A4D1E4" stroke-width="4.02292" stroke-miterlimit="10" stroke-linejoin="bevel"/>
<path d="M207.906 74.3475C207.717 72.3441 208.058 70.2534 208.995 68.3948C211.25 63.9206 216.1 62.4871 219.828 65.1927C223.557 67.8983 224.751 73.7187 222.497 78.1929C221.56 80.0514 220.175 81.3847 218.61 82.1152H218.61C218.608 82.1162 218.606 82.1168 218.604 82.1176C218.47 82.1803 218.334 82.2388 218.197 82.2924C214.904 83.6832 214.103 83.4685 212.523 86.6044L207.419 82.9006C208.999 79.7647 208.469 79.0136 207.966 74.8686C207.942 74.6979 207.922 74.5264 207.906 74.3543C207.906 74.3521 207.906 74.3497 207.906 74.3475Z" stroke="#A4D1E4" stroke-width="4.02292" stroke-miterlimit="10" stroke-linejoin="bevel"/>
<path d="M220.546 63.7694L228.164 48.6528" stroke="#A4D1E4" stroke-width="4.02292" stroke-miterlimit="10" stroke-linejoin="bevel"/>
<path d="M223.6 79.1069L236.307 88.3287" stroke="#A4D1E4" stroke-width="4.02292" stroke-miterlimit="10" stroke-linejoin="bevel"/>
<path d="M195.101 58.4253L207.808 67.6471" stroke="#A4D1E4" stroke-width="4.02292" stroke-miterlimit="10" stroke-linejoin="bevel"/>
<path d="M224.752 70.7031L239.083 66.4673" stroke="#A4D1E4" stroke-width="4.02292" stroke-miterlimit="10" stroke-linejoin="bevel"/>
<path d="M192.325 80.2879L206.789 76.0127" stroke="#A4D1E4" stroke-width="4.02292" stroke-miterlimit="10" stroke-linejoin="bevel"/>
<path d="M217.9 84.0757L221.462 101.432" stroke="#A4D1E4" stroke-width="4.02292" stroke-miterlimit="10" stroke-linejoin="bevel"/>
<path d="M209.945 45.3223L213.475 62.5201" stroke="#A4D1E4" stroke-width="4.02292" stroke-miterlimit="10" stroke-linejoin="bevel"/>
<path d="M223.394 67.0003L235.513 56.9512" stroke="#A4D1E4" stroke-width="4.02292" stroke-miterlimit="10" stroke-linejoin="bevel"/>
<path d="M220.921 82.4375L229.393 97.1476" stroke="#A4D1E4" stroke-width="4.02292" stroke-miterlimit="10" stroke-linejoin="bevel"/>
<path d="M202.016 49.6069L210.427 64.2134" stroke="#A4D1E4" stroke-width="4.02292" stroke-miterlimit="10" stroke-linejoin="bevel"/>
<path d="M224.829 75.3779L239.39 78.5704" stroke="#A4D1E4" stroke-width="4.02292" stroke-miterlimit="10" stroke-linejoin="bevel"/>
<path d="M192.018 68.1841L206.868 71.4398" stroke="#A4D1E4" stroke-width="4.02292" stroke-miterlimit="10" stroke-linejoin="bevel"/>
<path d="M220.031 44.9541L217.384 62.3393" stroke="#A4D1E4" stroke-width="4.02292" stroke-miterlimit="10" stroke-linejoin="bevel"/>
<path d="M188.322 267.002C188.825 268.845 189.356 270.687 189.268 272.99C189.179 275.293 187.358 275.694 185.469 279.757C183.579 283.82 181.532 284.575 177.91 284.056C174.288 283.536 175.705 279.993 177.713 276.686C179.721 273.38 181.68 270.474 181.68 270.474C181.68 270.474 182.506 269.394 182.816 267.285C183.126 265.177 186.108 265.603 186.108 265.603L188.322 267.002Z" fill="#333333"/>
<path d="M181.68 270.475C181.68 270.475 182.358 270.581 182.476 269.234C182.538 268.527 182.698 267.819 183.094 267.38C183.449 266.982 183.998 266.802 184.838 267.038C186.61 267.533 185.547 269.553 185.518 270.581C185.488 271.608 185.872 271.395 186.286 270.014C186.698 268.631 188.588 268.065 188.293 266.79C187.998 265.514 187.998 263.884 188.293 261.9L182.831 261.475C182.831 261.475 182.818 261.862 182.794 262.589C182.769 263.404 182.73 264.648 182.683 266.257C182.595 269.305 181.68 270.475 181.68 270.475Z" fill="#FFCA7D"/>
<path d="M187.751 266.155C187.84 267.243 186.844 268.331 186.613 268.779C186.382 269.227 186.062 269.739 186.222 269.142C186.382 268.544 186.204 267.136 185.155 266.838C184.106 266.539 183.488 266.678 183.095 267.377C183.095 267.378 183.094 267.378 183.094 267.38C183.449 266.982 183.998 266.802 184.838 267.038C186.61 267.533 185.547 269.553 185.518 270.581C185.488 271.608 185.872 271.395 186.286 270.014C186.698 268.631 188.588 268.065 188.293 266.79C187.998 265.514 187.998 263.884 188.293 261.9L182.831 261.475C182.831 261.475 182.818 261.862 182.794 262.589C182.854 262.664 182.889 262.709 182.889 262.709C183.733 264.129 185.031 264.385 186.258 264.235C187.484 264.086 187.662 265.067 187.751 266.155Z" fill="#F4A769"/>
<path d="M204.917 252.086C206.186 253.467 207.072 255.133 206.866 259.101C206.659 263.069 205.744 270.155 203.883 272.884C202.023 275.612 197.063 276.143 196.207 273.947C195.35 271.75 197.299 268.03 198.067 263.14C198.834 258.251 199.071 257.259 199.071 257.259C199.071 257.259 199.239 254.909 199.523 253.326C199.781 251.888 200.145 251.22 200.37 250.916C200.842 250.279 203.086 251.235 203.086 251.235L204.917 252.086Z" fill="#333333"/>
<path d="M198.539 248.754C198.621 248.968 198.694 249.211 198.754 249.479C199.388 252.181 199.07 257.259 199.07 257.259C199.07 257.259 199.366 257.081 199.366 256.974C199.366 256.872 198.969 253.251 200.237 252.634C200.28 252.612 200.323 252.596 200.369 252.582C201.342 252.292 202.909 252.333 203.027 253.644C203.145 254.956 203.617 257.293 204.149 256.409C204.681 255.522 204.917 252.085 204.917 252.085C204.917 252.085 204.267 250.916 203.831 247.592C203.831 247.592 197.624 246.381 198.539 248.754Z" fill="#FFCA7D"/>
<path d="M198.539 248.754C198.621 248.968 198.694 249.211 198.754 249.479C199.337 250.313 199.954 250.436 201.12 250.582C202.649 250.774 203.752 249.526 203.752 249.526C203.752 249.526 204.427 251.506 204.552 252.27C204.675 253.035 204.392 254.571 204.107 255.19C203.822 255.808 203.609 255.232 203.218 253.568C202.827 251.904 201.049 252.058 200.24 252.631C200.239 252.633 200.238 252.633 200.237 252.634C200.28 252.612 200.323 252.596 200.369 252.582C201.342 252.292 202.909 252.333 203.027 253.644C203.145 254.956 203.617 257.293 204.149 256.409C204.681 255.522 204.917 252.085 204.917 252.085C204.917 252.085 204.267 250.916 203.831 247.592C203.831 247.592 197.624 246.381 198.539 248.754Z" fill="#F4A769"/>
<path d="M176.099 171.857C174.21 185.369 174.682 201.147 175.391 207.95C176.099 214.753 177.634 227.461 178.697 238.515C179.76 249.57 182.654 262.396 182.654 262.396C182.654 262.396 183.421 263.813 185.724 263.742C188.028 263.671 188.677 261.971 188.677 261.971C188.677 261.971 190.153 241.964 188.677 233.082C187.201 224.201 186.463 216.646 186.472 212.296C186.48 207.946 193.224 171.857 193.224 171.857L190.691 165.811L176.099 171.857Z" fill="#252525"/>
<path d="M187.28 218.627C189.091 224.296 198.126 248.861 198.126 248.861C198.126 248.861 198.672 249.866 200.252 250.057C200.684 250.109 201.191 250.101 201.787 249.995C204.562 249.499 204.385 246.594 204.385 246.594C204.385 246.594 204.051 233.743 202.2 226.09C200.349 218.437 196.649 217.823 196.885 213.713C197.122 209.604 200.547 193.872 202.2 173.464C202.2 173.464 201.946 173.374 201.505 173.234C198.667 172.33 188.082 169.287 187.673 174.031C187.201 179.511 185.468 212.958 187.28 218.627Z" fill="#333333"/>
<path d="M187.752 218.72C187.752 218.72 189.209 220.298 193.224 219.036C197.24 217.776 197.122 217.256 198.264 219.76C199.405 222.263 202.731 229.09 203.322 237.877C203.913 246.664 204.414 248.152 202.85 249.322C202.125 249.863 201.121 250.033 200.252 250.057C200.684 250.109 201.191 250.101 201.787 249.995C204.562 249.499 204.385 246.593 204.385 246.593C204.385 246.593 204.051 233.743 202.2 226.09C200.349 218.437 196.649 217.823 196.885 213.713C197.122 209.603 200.547 193.872 202.2 173.463C202.2 173.463 201.946 173.374 201.505 173.234C199.846 188.465 196.95 213.07 194.366 216.643C191.768 220.232 187.752 218.72 187.752 218.72Z" fill="#252525"/>
<path d="M154.722 131.868C154.722 131.868 152.323 131.138 150.915 135.66C150.915 135.66 150.864 136.616 152.636 136.663C154.408 136.71 155.386 132.706 155.386 132.706L154.722 131.868Z" fill="#6190DB"/>
<path d="M152.085 122.573C151.77 122.089 151.071 122.419 151.13 123.222C151.189 124.026 151.733 125.811 151.682 126.483C151.632 127.155 151.632 127.155 151.632 127.155C151.632 127.155 151.524 125.951 150.914 124.604C150.303 123.258 149.624 123.034 149.388 123.447C149.152 123.86 149.477 124.427 149.959 125.525C150.441 126.624 150.461 127.025 150.461 127.474C150.461 127.923 150.461 127.923 150.461 127.923C150.461 127.923 150.116 127.392 149.674 126.518C149.231 125.644 148.443 124.912 148 125.325C147.558 125.738 148.552 126.978 148.817 127.557C149.083 128.136 149.369 128.809 149.369 128.809L149.113 129.187C149.113 129.187 148.079 127.486 147.508 127.746C146.937 128.006 148.188 129.789 148.552 130.415C148.916 131.041 148.985 131.005 148.985 131.005L152.213 127.084L152.361 126.11L152.848 123.86L152.085 122.573Z" fill="#F2BA70"/>
<path d="M149.269 133.214C150.306 133.602 150.83 134.294 151.675 136.169C151.809 136.465 151.95 136.791 152.104 137.15C153.226 139.78 154.959 135.528 155.038 135.411C155.068 135.364 155.09 135.09 155.105 134.774C155.129 134.283 155.136 133.686 155.136 133.686C155.136 133.686 154.759 133.166 154.376 132.426C153.944 131.588 153.506 130.47 153.6 129.505C153.778 127.687 153.778 124.285 153.778 124.285C153.822 123.364 153.364 122.974 153.128 122.266C152.892 121.557 152.464 121.079 152.065 121.522C151.666 121.964 152.094 124.056 152.169 124.94C152.242 125.827 152.095 126.357 151.489 126.57C150.884 126.783 149.467 128.229 148.778 129.482C148.625 129.762 148.504 130.079 148.423 130.411C148.423 130.412 148.423 130.412 148.423 130.414C148.142 131.564 148.338 132.865 149.269 133.214Z" fill="#FFCA7D"/>
<path d="M149.27 133.214C150.307 133.602 150.83 134.294 151.675 136.169C151.856 136.224 152.012 136.252 152.124 136.244C152.803 136.19 153.128 136.031 153.556 135.836C153.931 135.664 154.614 135.399 155.105 134.774C155.129 134.282 155.136 133.686 155.136 133.686C155.136 133.686 154.759 133.166 154.376 132.426C154.288 132.769 154.153 133.143 153.955 133.462C153.429 134.301 151.784 135.323 151.592 134.985C151.401 134.648 150.53 133.622 150.53 133.622C150.53 133.622 150.766 133.32 151.445 132.346C152.094 131.413 152.785 129.669 152.842 129.522C152.729 129.747 150.776 133.586 149.644 133.037C148.478 132.47 148.392 132.118 148.423 130.413C148.142 131.564 148.338 132.865 149.27 133.214Z" fill="#F4A769"/>
<path d="M150.915 135.66C150.986 135.807 155.527 145.249 157.557 149.796C159.604 154.378 163.285 159.008 167.891 151.071C172.497 143.135 178.461 132.009 178.461 132.009L181.119 118.928H177.044C172.733 121.026 171.552 122.443 168.777 129.317C166.001 136.19 163.698 141.505 163.226 141.788C162.753 142.072 154.722 131.867 154.722 131.867C154.722 131.867 154.664 133.214 153.158 134.596C152.91 134.822 152.683 135.004 152.477 135.149H152.476C151.463 135.857 150.948 135.671 150.915 135.66Z" fill="#EFEFEF"/>
<path d="M152.477 135.149C153.627 134.869 154.781 133.108 154.781 133.108L163.078 142.727L161.043 150.356C161.164 150.061 164.684 140.323 167.3 134.324C169.957 128.23 172.245 121.781 178.027 119.137L178.351 118.928H177.044C172.733 121.026 171.552 122.443 168.776 129.317C166.001 136.19 163.698 141.505 163.226 141.788C162.753 142.072 154.722 131.867 154.722 131.867C154.722 131.867 154.663 133.214 153.157 134.596C152.909 134.823 152.682 135.004 152.477 135.149Z" fill="white"/>
<path d="M181.929 116.384C177.595 118.758 176.571 119.136 176.571 119.136C176.571 119.136 175.941 127.356 177.516 136.993C179.091 146.63 178.697 159.291 177.044 165.81C175.39 172.33 174.768 175.306 174.768 175.306C174.768 175.306 177.162 179.274 186.846 178.707C196.531 178.14 203.381 176.865 203.381 176.865C203.381 176.865 199.693 154.24 201.058 147.764C202.423 141.288 205.743 117.128 205.743 117.128L205.991 116.384L197.859 114.045L181.929 116.384Z" fill="white"/>
<path d="M177.044 120.86C178.389 121.541 180.519 123.385 180.675 123.524C180.447 123.382 176.269 120.786 176.001 121.521C175.724 122.277 177.988 123.884 179.406 124.852C180.823 125.82 180.468 125.891 181.59 127.498C182.713 129.104 184.641 131.489 186.177 132.222C187.712 132.954 189.429 135.406 189.429 135.406L191.836 130.096C191.836 130.096 191.649 129.883 191.348 129.51C190.674 128.68 189.422 127.054 188.381 125.242C186.876 122.62 185.193 120.86 183.618 119.349C182.147 117.936 178.186 114.422 177.269 114.197C177.204 114.18 177.155 114.18 177.123 114.198C176.63 114.482 176.827 115.403 177.359 116.089C177.778 116.629 178.281 117.006 178.476 117.144C177.977 116.813 175.374 115.128 175.036 115.64C174.661 116.207 174.957 116.727 176.256 117.742C177.528 118.737 179.121 120.004 179.187 120.056C179.08 119.987 175.204 117.515 174.886 118.12C174.563 118.734 175.646 120.151 177.044 120.86Z" fill="#FFCA7D"/>
<path d="M177.044 120.86C178.389 121.541 180.519 123.385 180.675 123.524C180.447 123.382 176.269 120.786 176.001 121.521C175.724 122.277 177.988 123.884 179.406 124.852C180.823 125.82 180.468 125.891 181.59 127.498C182.713 129.104 184.641 131.489 186.177 132.222C187.712 132.954 189.429 135.406 189.429 135.406L191.836 130.096C191.836 130.096 191.649 129.883 191.348 129.51C189.828 129.919 189.12 132.895 188.657 133.32C188.194 133.745 187.946 132.523 186.079 131.548C183.465 130.184 182.043 126.954 180.843 125.656C179.642 124.356 175.83 122.21 176.283 121.69C176.73 121.178 180.806 123.673 180.919 123.741C180.852 123.667 179.513 122.222 177.76 121.043C175.969 119.838 174.549 118.873 175.095 118.209C175.417 117.817 180.673 121.204 180.8 121.282C180.762 121.227 180.043 120.528 178.156 119.018C176.207 117.459 174.416 116.224 175.39 115.735C176.094 115.381 181.86 119.96 182.205 120.233C182.07 120.113 181.025 119.18 179.465 117.837C177.792 116.397 176.616 114.849 177.269 114.197C177.204 114.18 177.155 114.18 177.123 114.198C176.63 114.482 176.828 115.403 177.359 116.089C177.778 116.629 178.281 117.006 178.476 117.144C177.977 116.813 175.374 115.128 175.036 115.64C174.662 116.207 174.957 116.727 176.256 117.742C177.528 118.737 179.121 120.004 179.187 120.056C179.08 119.987 175.204 117.515 174.886 118.12C174.563 118.734 175.646 120.151 177.044 120.86Z" fill="#F4A769"/>
<path d="M181.93 116.384C181.93 116.384 181.93 116.384 181.931 116.386C181.961 116.419 182.5 116.989 186.876 118.156C191.394 119.36 197.86 114.046 197.86 114.046C197.86 114.046 197.86 114.046 196.679 113.266C195.498 112.487 194.287 109.971 194.317 105.046C194.317 105.046 194.209 104.211 194.036 103.185C193.753 101.52 193.294 99.3487 192.831 99.4367C192.082 99.5784 181.955 107.526 181.955 107.526C182.702 108.199 185.548 108.093 185.548 108.093C185.548 108.093 186.109 109.262 185.459 112.522C184.809 115.782 181.93 116.384 181.93 116.384Z" fill="#F2BA70"/>
<path d="M181.931 116.385C181.961 116.419 182.5 116.989 186.876 118.156C191.394 119.36 197.86 114.046 197.86 114.046C197.86 114.046 197.86 114.046 196.679 113.266C195.498 112.487 194.287 109.971 194.317 105.046C194.317 105.046 194.209 104.211 194.036 103.185L192.575 101.432L192.18 102.095L193.217 104.231C192.885 108.802 189.43 115.283 189.43 115.283C191.599 113.402 193.726 105.223 193.726 105.223C193.726 105.223 193.578 108.022 194.258 110.538C194.937 113.054 196.147 114.185 196.147 114.185C196.147 114.185 193.49 117.164 189.021 117.553C184.615 117.937 182.003 116.427 181.931 116.385Z" fill="#F4A769"/>
<path d="M185.993 81.8877C179.435 84.3543 173.737 94.8771 181.531 99.1998L186.669 90.5437L185.993 81.8877Z" fill="#252525"/>
<path d="M180.626 101.042C180.626 101.042 180.676 102.508 180.878 104.06C181.069 105.529 181.398 107.078 181.955 107.526C183.097 108.448 190.478 105.507 192.575 101.432L192.576 101.434C192.604 101.469 193.152 102.134 193.785 101.857C194.435 101.574 199.05 100.429 197.161 94.6648C195.271 88.9009 191.295 85.7362 191.295 85.7362L183.481 84.3545C181 87.3661 180.262 91.0155 180.528 93.9917C180.794 96.9679 181.644 98.3105 180.705 99.0824C179.657 99.944 180.626 101.042 180.626 101.042Z" fill="#FFCA7D"/>
<path d="M181.545 87.5517C181.415 88.1493 180.877 94.8419 184.514 96.7197C186.869 97.9359 190.153 98.7039 190.153 98.7039L190.488 95.8221C190.488 95.8221 192.023 96.8141 191.964 97.9007C191.905 98.9872 191.966 99.2944 191.966 99.2944C191.966 99.2944 192.81 98.4203 193.047 96.2471C193.283 94.074 193.204 93.423 193.204 93.423L188.067 85.3109L182.661 85.103C182.661 85.103 181.674 86.9542 181.545 87.5517Z" fill="#F4A769"/>
<path d="M185.39 82.1458C180.19 84.7237 181.237 94.5231 185.961 96.2948C190.685 98.0663 189.917 97.6411 189.917 97.6411L190.272 91.9249C190.272 91.9249 190.24 95.4679 191.214 95.9639C192.188 96.4599 192.604 97.3932 192.338 98.2435C192.073 99.0939 192.25 99.2709 193.313 96.5073C194.376 93.7436 196.059 94.3107 196.649 96.401C197.24 98.4915 196.147 99.6607 194.966 100.299C193.785 100.936 193.638 101.361 193.254 101.432C192.87 101.503 192.575 101.432 192.575 101.432L194.317 105.046C194.317 105.046 194.021 103.239 195.409 102.318C196.797 101.397 201.649 96.9325 199.759 88.618C197.87 80.3034 188.677 80.516 185.39 82.1458Z" fill="#252525"/>
<path d="M180.877 104.06C181.068 105.529 181.398 107.078 181.954 107.526C183.096 108.448 190.478 105.507 192.574 101.432C189.779 104.184 185.582 106.861 183.401 106.877C181.782 106.889 181.211 105.731 180.88 104.073C180.878 104.068 180.878 104.064 180.877 104.06Z" fill="#F4A769"/>
<path d="M188.657 135.812C188.657 135.812 194.326 144.694 197.83 148.898C201.334 153.102 205.743 158.016 207.81 151C209.877 143.985 209.286 125.135 208.696 121.025C208.175 117.404 206.597 116.273 205.33 116.285C205.33 116.285 205.33 116.285 205.329 116.285C205.327 116.285 205.327 116.285 205.326 116.286C205.156 116.286 204.992 116.309 204.837 116.349C201.327 117.24 199.366 121.829 199.445 125.656C199.523 129.482 199.681 136.71 199.681 136.71L191.846 129.671C191.846 129.671 190.699 130.143 189.895 131.985C189.722 132.379 189.566 132.78 189.43 133.167C188.925 134.586 188.657 135.812 188.657 135.812Z" fill="#EFEFEF"/>
<path d="M207.302 149.399C207.328 149.674 207.34 149.949 207.337 150.221C207.337 150.221 207.393 149.953 207.302 149.399Z" fill="#9EC5FF"/>
<path d="M189.429 133.167C190.202 131.958 191.28 130.757 191.6 130.592C192.013 130.38 194.85 132.691 201.491 139.899C206.432 145.261 207.082 148.05 207.301 149.395C206.78 143.875 200.783 137.962 200.783 137.962C200.783 137.962 200.015 132.01 200.487 124.711C200.953 117.525 205.194 116.322 205.326 116.287C205.156 116.287 204.992 116.309 204.837 116.349C201.327 117.24 199.365 121.829 199.444 125.656C199.522 129.483 199.681 136.71 199.681 136.71L191.846 129.671C191.846 129.671 190.699 130.143 189.895 131.985C189.722 132.379 189.566 132.78 189.429 133.167Z" fill="white"/>
<g opacity="0.4">
<path opacity="0.01" d="M194.986 288.682C179.876 288.682 167.626 284.619 167.626 279.608C167.626 274.597 179.876 270.534 194.986 270.534C210.097 270.534 222.346 274.597 222.346 279.608C222.346 284.619 210.097 288.682 194.986 288.682Z" fill="#252525"/>
<path opacity="0.0277" d="M194.986 288.55C180.094 288.55 168.022 284.547 168.022 279.608C168.022 274.669 180.094 270.666 194.986 270.666C209.878 270.666 221.95 274.669 221.95 279.608C221.95 284.547 209.878 288.55 194.986 288.55Z" fill="#252525"/>
<path opacity="0.0454" d="M194.986 288.419C180.313 288.419 168.418 284.474 168.418 279.608C168.418 274.742 180.313 270.797 194.986 270.797C209.66 270.797 221.555 274.742 221.555 279.608C221.555 284.474 209.66 288.419 194.986 288.419Z" fill="#252525"/>
<path opacity="0.063" d="M194.986 288.288C180.532 288.288 168.814 284.402 168.814 279.608C168.814 274.814 180.532 270.928 194.986 270.928C209.441 270.928 221.159 274.814 221.159 279.608C221.159 284.402 209.441 288.288 194.986 288.288Z" fill="#252525"/>
<path opacity="0.0807" d="M194.987 288.157C180.75 288.157 169.21 284.329 169.21 279.608C169.21 274.886 180.75 271.059 194.987 271.059C209.223 271.059 220.763 274.886 220.763 279.608C220.763 284.329 209.223 288.157 194.987 288.157Z" fill="#252525"/>
<path opacity="0.0984" d="M194.986 288.025C180.969 288.025 169.605 284.257 169.605 279.608C169.605 274.959 180.969 271.19 194.986 271.19C209.004 271.19 220.367 274.959 220.367 279.608C220.367 284.257 209.004 288.025 194.986 288.025Z" fill="#252525"/>
<path opacity="0.1161" d="M194.987 287.894C181.188 287.894 170.002 284.184 170.002 279.608C170.002 275.032 181.188 271.322 194.987 271.322C208.785 271.322 219.972 275.032 219.972 279.608C219.972 284.184 208.785 287.894 194.987 287.894Z" fill="#252525"/>
<path opacity="0.1337" d="M194.986 287.763C181.406 287.763 170.397 284.112 170.397 279.608C170.397 275.104 181.406 271.453 194.986 271.453C208.566 271.453 219.575 275.104 219.575 279.608C219.575 284.112 208.566 287.763 194.986 287.763Z" fill="#252525"/>
<path opacity="0.1514" d="M194.987 287.632C181.625 287.632 170.793 284.04 170.793 279.608C170.793 275.177 181.625 271.584 194.987 271.584C208.348 271.584 219.18 275.177 219.18 279.608C219.18 284.04 208.348 287.632 194.987 287.632Z" fill="#252525"/>
<path opacity="0.1691" d="M194.986 287.501C181.843 287.501 171.188 283.967 171.188 279.608C171.188 275.249 181.843 271.716 194.986 271.716C208.129 271.716 218.784 275.249 218.784 279.608C218.784 283.967 208.129 287.501 194.986 287.501Z" fill="#252525"/>
<path opacity="0.1868" d="M194.986 287.369C182.062 287.369 171.585 283.894 171.585 279.608C171.585 275.321 182.062 271.847 194.986 271.847C207.911 271.847 218.388 275.321 218.388 279.608C218.388 283.894 207.911 287.369 194.986 287.369Z" fill="#252525"/>
<path opacity="0.2045" d="M194.986 287.238C182.28 287.238 171.98 283.822 171.98 279.608C171.98 275.394 182.28 271.978 194.986 271.978C207.692 271.978 217.992 275.394 217.992 279.608C217.992 283.822 207.692 287.238 194.986 287.238Z" fill="#252525"/>
<path opacity="0.2221" d="M194.986 287.106C182.499 287.106 172.376 283.749 172.376 279.608C172.376 275.467 182.499 272.109 194.986 272.109C207.474 272.109 217.597 275.467 217.597 279.608C217.597 283.749 207.474 287.106 194.986 287.106Z" fill="#252525"/>
<path opacity="0.2398" d="M194.986 286.975C182.718 286.975 172.772 283.677 172.772 279.608C172.772 275.539 182.718 272.241 194.986 272.241C207.255 272.241 217.201 275.539 217.201 279.608C217.201 283.677 207.255 286.975 194.986 286.975Z" fill="#252525"/>
<path opacity="0.2575" d="M194.986 286.844C182.936 286.844 173.167 283.604 173.167 279.608C173.167 275.612 182.936 272.372 194.986 272.372C207.036 272.372 216.805 275.612 216.805 279.608C216.805 283.604 207.036 286.844 194.986 286.844Z" fill="#252525"/>
<path opacity="0.2752" d="M194.986 286.713C183.155 286.713 173.564 283.532 173.564 279.608C173.564 275.684 183.155 272.503 194.986 272.503C206.818 272.503 216.409 275.684 216.409 279.608C216.409 283.532 206.818 286.713 194.986 286.713Z" fill="#252525"/>
<path opacity="0.2929" d="M194.986 286.582C183.373 286.582 173.959 283.46 173.959 279.608C173.959 275.757 183.373 272.635 194.986 272.635C206.599 272.635 216.013 275.757 216.013 279.608C216.013 283.46 206.599 286.582 194.986 286.582Z" fill="#252525"/>
<path opacity="0.3105" d="M194.986 286.45C183.592 286.45 174.355 283.387 174.355 279.608C174.355 275.829 183.592 272.766 194.986 272.766C206.381 272.766 215.618 275.829 215.618 279.608C215.618 283.387 206.381 286.45 194.986 286.45Z" fill="#252525"/>
<path opacity="0.3282" d="M194.986 286.319C183.811 286.319 174.751 283.314 174.751 279.608C174.751 275.902 183.811 272.897 194.986 272.897C206.162 272.897 215.222 275.902 215.222 279.608C215.222 283.314 206.162 286.319 194.986 286.319Z" fill="#252525"/>
<path opacity="0.3459" d="M194.987 286.188C184.03 286.188 175.147 283.242 175.147 279.608C175.147 275.974 184.03 273.028 194.987 273.028C205.944 273.028 214.826 275.974 214.826 279.608C214.826 283.242 205.944 286.188 194.987 286.188Z" fill="#252525"/>
<path opacity="0.3636" d="M194.986 286.057C184.248 286.057 175.542 283.17 175.542 279.608C175.542 276.047 184.248 273.16 194.986 273.16C205.725 273.16 214.43 276.047 214.43 279.608C214.43 283.17 205.725 286.057 194.986 286.057Z" fill="#252525"/>
<path opacity="0.3812" d="M194.987 285.925C184.467 285.925 175.939 283.097 175.939 279.608C175.939 276.119 184.467 273.291 194.987 273.291C205.507 273.291 214.035 276.119 214.035 279.608C214.035 283.097 205.507 285.925 194.987 285.925Z" fill="#252525"/>
<path opacity="0.3989" d="M194.986 285.794C184.685 285.794 176.334 283.025 176.334 279.608C176.334 276.192 184.685 273.422 194.986 273.422C205.287 273.422 213.638 276.192 213.638 279.608C213.638 283.025 205.287 285.794 194.986 285.794Z" fill="#252525"/>
<path opacity="0.4166" d="M194.986 285.663C184.904 285.663 176.73 282.952 176.73 279.608C176.73 276.264 184.904 273.553 194.986 273.553C205.069 273.553 213.243 276.264 213.243 279.608C213.243 282.952 205.069 285.663 194.986 285.663Z" fill="#252525"/>
<path opacity="0.4343" d="M194.986 285.531C185.122 285.531 177.126 282.879 177.126 279.608C177.126 276.337 185.122 273.685 194.986 273.685C204.85 273.685 212.847 276.337 212.847 279.608C212.847 282.879 204.85 285.531 194.986 285.531Z" fill="#252525"/>
<path opacity="0.452" d="M194.986 285.4C185.341 285.4 177.522 282.807 177.522 279.608C177.522 276.409 185.341 273.816 194.986 273.816C204.632 273.816 212.451 276.409 212.451 279.608C212.451 282.807 204.632 285.4 194.986 285.4Z" fill="#252525"/>
<path opacity="0.4696" d="M194.986 285.269C185.559 285.269 177.917 282.735 177.917 279.608C177.917 276.482 185.559 273.947 194.986 273.947C204.413 273.947 212.055 276.482 212.055 279.608C212.055 282.735 204.413 285.269 194.986 285.269Z" fill="#252525"/>
<path opacity="0.4873" d="M194.986 285.138C185.778 285.138 178.313 282.662 178.313 279.608C178.313 276.554 185.778 274.079 194.986 274.079C204.194 274.079 211.659 276.554 211.659 279.608C211.659 282.662 204.194 285.138 194.986 285.138Z" fill="#252525"/>
<path opacity="0.505" d="M194.986 285.007C185.996 285.007 178.709 282.59 178.709 279.608C178.709 276.627 185.996 274.21 194.986 274.21C203.976 274.21 211.264 276.627 211.264 279.608C211.264 282.59 203.976 285.007 194.986 285.007Z" fill="#252525"/>
<path opacity="0.5227" d="M194.986 284.875C186.215 284.875 179.104 282.517 179.104 279.608C179.104 276.699 186.215 274.341 194.986 274.341C203.757 274.341 210.868 276.699 210.868 279.608C210.868 282.517 203.757 284.875 194.986 284.875Z" fill="#252525"/>
<path opacity="0.5404" d="M194.986 284.744C186.434 284.744 179.501 282.444 179.501 279.608C179.501 276.772 186.434 274.472 194.986 274.472C203.539 274.472 210.472 276.772 210.472 279.608C210.472 282.444 203.539 284.744 194.986 284.744Z" fill="#252525"/>
<path opacity="0.558" d="M194.986 284.613C186.652 284.613 179.896 282.372 179.896 279.608C179.896 276.844 186.652 274.604 194.986 274.604C203.32 274.604 210.076 276.844 210.076 279.608C210.076 282.372 203.32 284.613 194.986 284.613Z" fill="#252525"/>
<path opacity="0.5757" d="M194.986 284.481C186.871 284.481 180.292 282.299 180.292 279.608C180.292 276.917 186.871 274.735 194.986 274.735C203.102 274.735 209.681 276.917 209.681 279.608C209.681 282.299 203.102 284.481 194.986 284.481Z" fill="#252525"/>
<path opacity="0.5934" d="M194.986 284.35C187.09 284.35 180.688 282.227 180.688 279.608C180.688 276.989 187.09 274.866 194.986 274.866C202.883 274.866 209.285 276.989 209.285 279.608C209.285 282.227 202.883 284.35 194.986 284.35Z" fill="#252525"/>
<path opacity="0.6111" d="M194.987 284.219C187.308 284.219 181.084 282.155 181.084 279.608C181.084 277.062 187.308 274.998 194.987 274.998C202.665 274.998 208.889 277.062 208.889 279.608C208.889 282.155 202.665 284.219 194.987 284.219Z" fill="#252525"/>
<path opacity="0.6287" d="M194.986 284.087C187.527 284.087 181.48 282.082 181.48 279.608C181.48 277.134 187.527 275.128 194.986 275.128C202.446 275.128 208.493 277.134 208.493 279.608C208.493 282.082 202.446 284.087 194.986 284.087Z" fill="#252525"/>
<path opacity="0.6464" d="M194.987 283.956C187.746 283.956 181.876 282.01 181.876 279.608C181.876 277.207 187.746 275.26 194.987 275.26C202.228 275.26 208.098 277.207 208.098 279.608C208.098 282.01 202.228 283.956 194.987 283.956Z" fill="#252525"/>
<path opacity="0.6641" d="M194.986 283.825C187.964 283.825 182.271 281.937 182.271 279.608C182.271 277.279 187.964 275.391 194.986 275.391C202.009 275.391 207.702 277.279 207.702 279.608C207.702 281.937 202.009 283.825 194.986 283.825Z" fill="#252525"/>
<path opacity="0.6818" d="M194.986 283.694C188.183 283.694 182.667 281.865 182.667 279.608C182.667 277.352 188.183 275.522 194.986 275.522C201.79 275.522 207.306 277.352 207.306 279.608C207.306 281.865 201.79 283.694 194.986 283.694Z" fill="#252525"/>
<path opacity="0.6995" d="M194.986 283.563C188.401 283.563 183.063 281.792 183.063 279.608C183.063 277.424 188.401 275.654 194.986 275.654C201.571 275.654 206.91 277.424 206.91 279.608C206.91 281.792 201.571 283.563 194.986 283.563Z" fill="#252525"/>
<path opacity="0.7171" d="M194.986 283.431C188.62 283.431 183.459 281.72 183.459 279.608C183.459 277.497 188.62 275.785 194.986 275.785C201.353 275.785 206.514 277.497 206.514 279.608C206.514 281.72 201.353 283.431 194.986 283.431Z" fill="#252525"/>
<path opacity="0.7348" d="M194.986 283.3C188.838 283.3 183.854 281.647 183.854 279.608C183.854 277.569 188.838 275.916 194.986 275.916C201.134 275.916 206.118 277.569 206.118 279.608C206.118 281.647 201.134 283.3 194.986 283.3Z" fill="#252525"/>
<path opacity="0.7525" d="M194.986 283.169C189.057 283.169 184.25 281.574 184.25 279.608C184.25 277.642 189.057 276.047 194.986 276.047C200.915 276.047 205.722 277.642 205.722 279.608C205.722 281.574 200.915 283.169 194.986 283.169Z" fill="#252525"/>
<path opacity="0.7702" d="M194.986 283.037C189.275 283.037 184.646 281.502 184.646 279.608C184.646 277.714 189.275 276.179 194.986 276.179C200.697 276.179 205.327 277.714 205.327 279.608C205.327 281.502 200.697 283.037 194.986 283.037Z" fill="#252525"/>
<path opacity="0.7879" d="M194.986 282.906C189.494 282.906 185.042 281.43 185.042 279.608C185.042 277.787 189.494 276.31 194.986 276.31C200.478 276.31 204.931 277.787 204.931 279.608C204.931 281.43 200.478 282.906 194.986 282.906Z" fill="#252525"/>
<path opacity="0.8055" d="M194.986 282.775C189.713 282.775 185.438 281.357 185.438 279.608C185.438 277.859 189.713 276.441 194.986 276.441C200.26 276.441 204.535 277.859 204.535 279.608C204.535 281.357 200.26 282.775 194.986 282.775Z" fill="#252525"/>
<path opacity="0.8232" d="M194.986 282.644C189.931 282.644 185.833 281.285 185.833 279.608C185.833 277.932 189.931 276.573 194.986 276.573C200.041 276.573 204.139 277.932 204.139 279.608C204.139 281.285 200.041 282.644 194.986 282.644Z" fill="#252525"/>
<path opacity="0.8409" d="M194.987 282.512C190.15 282.512 186.229 281.212 186.229 279.608C186.229 278.004 190.15 276.704 194.987 276.704C199.823 276.704 203.744 278.004 203.744 279.608C203.744 281.212 199.823 282.512 194.987 282.512Z" fill="#252525"/>
<path opacity="0.8586" d="M194.986 282.381C190.369 282.381 186.625 281.139 186.625 279.608C186.625 278.076 190.369 276.835 194.986 276.835C199.604 276.835 203.348 278.076 203.348 279.608C203.348 281.139 199.604 282.381 194.986 282.381Z" fill="#252525"/>
<path opacity="0.8762" d="M194.987 282.25C190.587 282.25 187.021 281.067 187.021 279.608C187.021 278.149 190.587 276.966 194.987 276.966C199.386 276.966 202.952 278.149 202.952 279.608C202.952 281.067 199.386 282.25 194.987 282.25Z" fill="#252525"/>
<path opacity="0.8939" d="M194.986 282.119C190.806 282.119 187.417 280.995 187.417 279.608C187.417 278.222 190.806 277.098 194.986 277.098C199.167 277.098 202.556 278.222 202.556 279.608C202.556 280.995 199.167 282.119 194.986 282.119Z" fill="#252525"/>
<path opacity="0.9116" d="M194.986 281.987C191.024 281.987 187.812 280.922 187.812 279.608C187.812 278.294 191.024 277.229 194.986 277.229C198.948 277.229 202.16 278.294 202.16 279.608C202.16 280.922 198.948 281.987 194.986 281.987Z" fill="#252525"/>
<path opacity="0.9293" d="M194.987 281.856C191.243 281.856 188.208 280.85 188.208 279.608C188.208 278.367 191.243 277.36 194.987 277.36C198.73 277.36 201.765 278.367 201.765 279.608C201.765 280.85 198.73 281.856 194.987 281.856Z" fill="#252525"/>
<path opacity="0.947" d="M194.986 281.725C191.462 281.725 188.604 280.777 188.604 279.608C188.604 278.439 191.462 277.491 194.986 277.491C198.511 277.491 201.369 278.439 201.369 279.608C201.369 280.777 198.511 281.725 194.986 281.725Z" fill="#252525"/>
<path opacity="0.9646" d="M194.987 281.594C191.68 281.594 189 280.705 189 279.608C189 278.512 191.68 277.623 194.987 277.623C198.293 277.623 200.973 278.512 200.973 279.608C200.973 280.705 198.293 281.594 194.987 281.594Z" fill="#252525"/>
<path opacity="0.9823" d="M194.986 281.462C191.898 281.462 189.395 280.632 189.395 279.608C189.395 278.584 191.898 277.754 194.986 277.754C198.074 277.754 200.577 278.584 200.577 279.608C200.577 280.632 198.074 281.462 194.986 281.462Z" fill="#252525"/>
<path d="M194.986 281.331C192.117 281.331 189.791 280.56 189.791 279.608C189.791 278.657 192.117 277.885 194.986 277.885C197.855 277.885 200.181 278.657 200.181 279.608C200.181 280.56 197.855 281.331 194.986 281.331Z" fill="#252525"/>
</g>
</g>
<defs>
<clipPath id="clip0_925_2768">
<rect width="320" height="320" fill="white" transform="matrix(-1 0 0 1 320 0)"/>
</clipPath>
</defs>
</svg>
