<svg width="642" height="259" viewBox="0 0 642 259" fill="none" xmlns="http://www.w3.org/2000/svg">
<path d="M175.446 235.879C164.774 226.448 157.255 214.107 149.979 201.883C142.581 189.542 135.063 177.085 127.665 164.744C124.391 159.272 115.901 162.066 110.08 164.977C100.985 169.401 90.6767 172.661 80.7324 170.565C70.788 168.586 61.8138 159.971 62.4202 150.307C63.0265 140.761 72.7284 133.426 82.5514 132.495C92.4958 131.563 102.198 135.638 110.323 141.11C115.174 144.253 120.752 138.432 123.42 133.542C127.301 125.975 131.303 118.291 132.395 109.908C133.486 101.526 131.061 92.2121 124.148 86.973C117.235 81.7339 105.593 82.4325 100.985 89.6507C98.6807 93.3763 98.4382 98.2661 95.5276 101.642C90.9193 106.881 81.2174 105.717 76.9729 100.245C72.7284 94.7734 73.456 86.7401 77.458 81.0354C81.3387 75.3306 87.8874 71.7215 94.5574 69.393C112.87 63.1062 136.518 67.2974 146.583 83.3639C153.132 93.7256 152.89 106.998 148.888 118.524C144.886 130.05 137.609 140.179 130.333 150.191C128.15 153.218 130.454 157.176 132.637 160.087C141.247 171.496 150.222 182.673 159.56 193.501C167.806 203.047 176.416 212.478 186.725 220.045C215.224 241.001 255.971 245.076 288.472 230.407C303.995 223.305 318.184 211.313 322.429 195.247C326.552 179.297 317.457 159.738 300.721 156.129C310.665 152.403 322.55 158.69 327.28 168.004C332.009 177.201 330.918 188.261 327.643 198.041C316.729 230.174 282.773 251.945 247.846 255.904C222.136 258.814 194.486 252.876 175.446 235.879ZM88.8576 160.785C93.9511 160.436 98.9232 158.923 103.289 156.361C106.442 154.615 109.231 149.958 106.078 148.095C101.955 145.65 97.5893 143.438 92.8596 142.74C88.0087 142.041 82.794 143.322 79.6409 146.815C76.6091 150.424 76.7303 156.478 80.6111 159.272C82.9153 160.785 85.9471 161.018 88.8576 160.785Z" fill="url(#paint0_linear_680_635)"/>
<path d="M286.169 71.2776C287.867 70.9295 290.051 70.6975 291.022 72.2056C291.871 73.3657 291.265 74.9898 290.537 76.2659C280.587 96.1035 272.579 116.985 266.754 138.331C262.265 155.152 250.616 170.117 235.206 179.282C233.508 178.122 233.872 175.57 234.6 173.713C244.671 143.319 254.863 112.925 265.056 82.5304C265.905 80.0942 266.754 77.426 268.938 75.8019C270.516 74.5258 272.7 74.0618 274.763 73.7137C278.524 72.9017 282.286 72.0896 286.169 71.2776Z" fill="url(#paint1_linear_680_635)"/>
<path d="M493.204 125.593C491.871 127 491.023 128.877 490.174 130.754C484.477 143.541 478.78 156.445 473.083 169.232C471.871 172.048 470.78 175.684 473.083 177.796C474.538 179.087 476.72 179.087 478.659 178.969C493.568 178.5 508.356 177.913 523.143 177.444C524.598 178.5 524.234 180.846 522.901 181.902C521.446 182.958 519.628 183.192 517.81 183.31C499.144 184.952 480.356 186.594 461.69 188.119C459.75 184.248 461.447 179.673 463.144 175.684C470.902 157.501 478.78 139.318 486.659 121.135C488.72 116.208 495.386 115.035 500.841 114.683C511.386 113.861 521.81 113.158 532.355 112.336C534.658 112.219 537.083 112.102 539.143 113.158C541.204 114.096 542.658 116.794 541.325 118.671C540.234 120.431 537.931 120.666 535.871 120.666C526.295 120.9 516.719 121.252 507.144 121.487C502.174 121.604 496.477 121.956 493.204 125.593Z" fill="url(#paint2_linear_680_635)"/>
<path d="M182.342 81.0173C188.403 80.6668 194.463 80.4332 200.524 80.0828C194.706 94.6841 190.221 109.753 187.191 125.172C186.221 129.961 185.857 135.801 189.978 138.488C192.766 140.24 196.281 139.89 199.554 139.423C204.16 138.722 209.372 137.787 212.16 134.166C213.615 132.297 214.221 130.078 214.827 127.975C218.948 112.79 223.191 97.7212 227.312 82.5358C228.16 79.6155 231.797 78.5642 234.948 78.097C240.766 77.2793 246.585 76.8121 252.403 76.9289C245.615 98.422 238.706 120.032 231.797 141.642C230.1 147.249 227.918 153.44 222.706 156.594C219.069 159.047 214.342 159.397 209.857 159.748C203.554 160.215 197.251 160.682 190.827 161.266C183.312 161.85 174.948 162.201 168.888 157.762C160.645 151.804 160.403 140.24 161.615 130.428C163.312 116.294 166.342 102.277 170.706 88.6099C171.191 86.8578 171.797 85.1056 173.13 83.7039C175.433 81.4845 179.069 81.1341 182.342 81.0173Z" fill="url(#paint3_linear_680_635)"/>
<path d="M240.646 224.753C225.942 223.702 210.753 217.161 204.07 204.546C199.088 194.968 199.938 182.82 206.257 173.942C207.594 172.074 209.538 170.205 211.847 170.672C212.454 173.942 210.632 177.213 209.659 180.367C207.351 187.842 209.902 196.253 215.371 202.093C220.717 208.05 228.494 211.554 236.514 212.839C257.901 216.577 281.232 204.312 289.616 184.922C290.467 182.937 291.074 180.6 289.981 178.732C288.887 176.979 285.242 176.863 284.999 178.965C283.783 186.674 277.1 194.384 269.08 193.099C262.154 192.047 257.901 184.221 259.359 177.563C260.696 170.905 266.407 165.766 272.726 162.729C279.773 159.342 289.373 158.641 294.477 164.481C296.178 166.467 297.15 168.92 297.758 171.489C301.403 185.857 295.206 201.742 283.662 211.788C272.24 221.716 256.078 225.921 240.646 224.753Z" fill="url(#paint4_linear_680_635)"/>
<path d="M419.408 158.81H413.549L410.253 166.025L400.122 188.701L439.428 183.933L445.043 184.282L447.24 188.701L387.915 194.748L419.408 126.139L421.972 119.627H431.738H467.137L476.292 119.627V125.092H428.076L425.634 130.79L421.972 138.348L415.869 152.885L450.17 151.252L464.207 150.67L461.766 156.485L419.408 158.81Z" fill="url(#paint5_linear_680_635)"/>
<path d="M55.4866 57.4426C52.2122 65.3621 44.572 71.651 35.8404 73.3979C27.1087 75.1449 17.6494 72.3498 11.3432 66.2938C3.70297 58.9566 1.39878 47.5433 4.06679 37.5276C6.61352 27.6283 13.7686 19.0101 22.379 12.954C36.3254 3.28765 54.2739 -0.322676 71.2521 1.42426C88.3516 3.17119 104.602 10.0425 118.67 19.4759C135.648 31.0057 150.322 47.6598 152.505 67.4584C148.261 68.0407 145.35 63.7316 143.167 60.2377C127.038 34.0337 93.0813 19.243 61.9141 24.8332C57.7908 25.532 53.425 26.813 50.757 29.8411C48.089 32.9855 47.9677 38.4593 51.6059 40.4391C57.1844 43.7001 57.7908 51.6195 55.4866 57.4426ZM36.6893 66.4102C38.1445 65.3621 39.5998 64.4304 41.1764 63.3822C38.5 65.1553 32.566 61.7517 30.1405 64.8962C31.8383 66.5267 34.5064 67.109 36.6893 66.4102Z" fill="url(#paint6_linear_680_635)"/>
<path d="M561.942 111.752C560.248 123.155 557.221 134.325 553.106 145.146C564.969 145.263 576.831 145.379 588.694 145.379C594.263 145.495 601.405 144.448 602.736 139.212C610.604 110.588 620.53 82.4294 632.272 54.9689C633.241 52.6418 634.451 50.0819 636.872 49.1511C639.293 48.2202 642.804 50.3146 641.835 52.6418C621.257 104.072 603.099 156.433 587.363 209.492C585.789 214.728 581.916 221.244 576.589 219.499C582.884 199.02 589.179 178.541 595.352 158.062C595.836 156.549 596.321 154.804 595.231 153.524C594.263 152.244 592.447 152.244 590.873 152.244C581.31 152.244 571.747 152.244 562.184 152.244C559.037 152.244 555.769 152.36 553.106 153.873C547.78 156.898 547.174 163.763 545.964 169.581C544.632 175.399 539.548 181.915 533.738 179.937C540.517 159.342 547.295 138.747 553.953 118.151C555.164 114.544 558.432 109.89 561.942 111.752Z" fill="url(#paint7_linear_680_635)"/>
<path d="M342.385 93.8966C331.441 94.2456 320.497 94.7108 309.431 95.176C307.972 95.176 306.146 95.2923 305.538 93.8966C302.012 86.104 301.891 75.4038 309.552 70.8678C317.091 66.4481 331.806 66.6805 340.683 66.0989C364.152 64.3543 387.621 62.726 411.09 60.9813C429.939 59.702 448.665 58.3062 467.514 57.0269C471.891 67.262 478.093 77.9624 467.514 80.8701C456.934 83.7778 439.909 84.9267 419.845 87.267C399.781 89.6074 390.173 88.4301 377.892 91.3378C363.543 91.3378 361.355 104.481 363.909 117.972C378.379 117.624 392.972 117.158 407.564 116.693C408.658 116.693 409.874 116.693 410.604 117.507C411.577 118.554 410.969 120.182 410.361 121.462C392.85 155.889 375.339 190.2 357.829 224.627C350.897 238.235 342.75 253.007 328.158 258.822C343.844 218.928 359.409 179.034 375.096 139.141C359.653 140.42 344.088 141.583 328.644 142.746C333.143 126.463 337.764 110.18 342.385 93.8966Z" fill="url(#paint8_linear_680_635)"/>
<path d="M173.446 231.879C162.774 222.448 155.255 210.107 147.979 197.883C140.581 185.542 133.063 173.085 125.665 160.744C122.391 155.272 113.901 158.066 108.08 160.977C98.9849 165.401 88.6767 168.661 78.7324 166.565C68.788 164.586 59.8138 155.971 60.4202 146.307C61.0265 136.761 70.7284 129.426 80.5514 128.495C90.4958 127.563 100.198 131.638 108.323 137.11C113.174 140.253 118.752 134.432 121.42 129.542C125.301 121.975 129.303 114.291 130.395 105.908C131.486 97.5259 129.061 88.2121 122.148 82.973C115.235 77.7339 103.593 78.4325 98.9849 85.6507C96.6807 89.3763 96.4382 94.2661 93.5276 97.6424C88.9193 102.881 79.2174 101.717 74.9729 96.2453C70.7284 90.7734 71.456 82.7401 75.458 77.0354C79.3387 71.3306 85.8874 67.7215 92.5574 65.393C110.87 59.1062 134.518 63.2974 144.583 79.3639C151.132 89.7256 150.89 102.998 146.888 114.524C142.886 126.05 135.609 136.179 128.333 146.191C126.15 149.218 128.454 153.176 130.637 156.087C139.247 167.496 148.222 178.673 157.56 189.501C165.806 199.047 174.416 208.478 184.725 216.045C213.224 237.001 253.971 241.076 286.472 226.407C301.995 219.305 316.184 207.313 320.429 191.247C324.552 175.297 315.457 155.738 298.721 152.129C308.665 148.403 320.55 154.69 325.28 164.004C330.009 173.201 328.918 184.261 325.643 194.041C314.729 226.174 280.773 247.945 245.846 251.904C220.136 254.814 192.486 248.876 173.446 231.879ZM86.8576 156.785C91.9511 156.436 96.9232 154.923 101.289 152.361C104.442 150.615 107.231 145.958 104.078 144.095C99.9551 141.65 95.5893 139.438 90.8596 138.74C86.0087 138.041 80.794 139.322 77.6409 142.815C74.6091 146.424 74.7303 152.478 78.6111 155.272C80.9153 156.785 83.9471 157.018 86.8576 156.785Z" fill="url(#paint9_linear_680_635)"/>
<path d="M284.169 67.2776C285.867 66.9295 288.051 66.6975 289.022 68.2056C289.871 69.3657 289.265 70.9898 288.537 72.2659C278.587 92.1035 270.579 112.985 264.754 134.331C260.265 151.152 248.616 166.117 233.206 175.282C231.508 174.122 231.872 171.57 232.6 169.713C242.671 139.319 252.863 108.925 263.056 78.5304C263.905 76.0942 264.754 73.426 266.938 71.8019C268.516 70.5258 270.7 70.0618 272.763 69.7137C276.524 68.9017 280.286 68.0896 284.169 67.2776Z" fill="url(#paint10_linear_680_635)"/>
<path d="M491.204 121.593C489.871 123 489.023 124.877 488.174 126.754C482.477 139.541 476.78 152.445 471.083 165.232C469.871 168.048 468.78 171.684 471.083 173.796C472.538 175.087 474.72 175.087 476.659 174.969C491.568 174.5 506.356 173.913 521.143 173.444C522.598 174.5 522.234 176.846 520.901 177.902C519.446 178.958 517.628 179.192 515.81 179.31C497.144 180.952 478.356 182.594 459.69 184.119C457.75 180.248 459.447 175.673 461.144 171.684C468.902 153.501 476.78 135.318 484.659 117.135C486.72 112.208 493.386 111.035 498.841 110.683C509.386 109.861 519.81 109.158 530.355 108.336C532.658 108.219 535.083 108.102 537.143 109.158C539.204 110.096 540.658 112.794 539.325 114.671C538.234 116.431 535.931 116.666 533.871 116.666C524.295 116.9 514.719 117.252 505.144 117.487C500.174 117.604 494.477 117.956 491.204 121.593Z" fill="url(#paint11_linear_680_635)"/>
<path d="M180.342 77.0173C186.403 76.6668 192.463 76.4332 198.524 76.0828C192.706 90.6841 188.221 105.753 185.191 121.172C184.221 125.961 183.857 131.801 187.978 134.488C190.766 136.24 194.281 135.89 197.554 135.423C202.16 134.722 207.372 133.787 210.16 130.166C211.615 128.297 212.221 126.078 212.827 123.975C216.948 108.79 221.191 93.7212 225.312 78.5358C226.16 75.6155 229.797 74.5642 232.948 74.097C238.766 73.2793 244.585 72.8121 250.403 72.9289C243.615 94.422 236.706 116.032 229.797 137.642C228.1 143.249 225.918 149.44 220.706 152.594C217.069 155.047 212.342 155.397 207.857 155.748C201.554 156.215 195.251 156.682 188.827 157.266C181.312 157.85 172.948 158.201 166.888 153.762C158.645 147.804 158.403 136.24 159.615 126.428C161.312 112.294 164.342 98.2768 168.706 84.6099C169.191 82.8578 169.797 81.1056 171.13 79.7039C173.433 77.4845 177.069 77.1341 180.342 77.0173Z" fill="url(#paint12_linear_680_635)"/>
<path d="M238.646 220.753C223.942 219.702 208.753 213.161 202.07 200.546C197.088 190.968 197.938 178.82 204.257 169.942C205.594 168.074 207.538 166.205 209.847 166.672C210.454 169.942 208.632 173.213 207.659 176.367C205.351 183.842 207.902 192.253 213.371 198.093C218.717 204.05 226.494 207.554 234.514 208.839C255.901 212.577 279.232 200.312 287.616 180.922C288.467 178.937 289.074 176.6 287.981 174.732C286.887 172.979 283.242 172.863 282.999 174.965C281.783 182.674 275.1 190.384 267.08 189.099C260.154 188.047 255.901 180.221 257.359 173.563C258.696 166.905 264.407 161.766 270.726 158.729C277.773 155.342 287.373 154.641 292.477 160.481C294.178 162.467 295.15 164.92 295.758 167.489C299.403 181.857 293.206 197.742 281.662 207.788C270.24 217.716 254.078 221.921 238.646 220.753Z" fill="url(#paint13_linear_680_635)"/>
<path d="M417.408 154.81H411.549L408.253 162.025L398.122 184.701L437.428 179.933L443.043 180.282L445.24 184.701L385.915 190.748L417.408 122.139L419.972 115.627H429.738H465.137L474.292 115.627V121.092H426.076L423.634 126.79L419.972 134.348L413.869 148.885L448.17 147.252L462.207 146.67L459.766 152.485L417.408 154.81Z" fill="url(#paint14_linear_680_635)"/>
<path d="M52.4866 56.4426C49.2122 64.3621 41.572 70.651 32.8404 72.3979C24.1087 74.1449 14.6494 71.3498 8.34318 65.2938C0.702967 57.9566 -1.60122 46.5433 1.06679 36.5276C3.61352 26.6283 10.7686 18.0101 19.379 11.954C33.3254 2.28765 51.2739 -1.32268 68.2521 0.424258C85.3516 2.17119 101.602 9.04247 115.67 18.4759C132.648 30.0057 147.322 46.6598 149.505 66.4584C145.261 67.0407 142.35 62.7316 140.167 59.2377C124.038 33.0337 90.0813 18.243 58.9141 23.8332C54.7908 24.532 50.425 25.813 47.757 28.8411C45.089 31.9855 44.9677 37.4593 48.6059 39.4391C54.1844 42.7001 54.7908 50.6195 52.4866 56.4426ZM33.6893 65.4102C35.1445 64.3621 36.5998 63.4304 38.1764 62.3822C34.902 60.053 41.9255 59.3555 39.5 62.5C41.1978 64.1305 31.5064 66.109 33.6893 65.4102Z" fill="url(#paint15_linear_680_635)"/>
<path d="M559.942 107.752C558.248 119.155 555.221 130.325 551.106 141.146C562.969 141.263 574.831 141.379 586.694 141.379C592.263 141.495 599.405 140.448 600.736 135.212C608.604 106.588 618.53 78.4294 630.272 50.9689C631.241 48.6418 632.451 46.0819 634.872 45.1511C637.293 44.2202 640.804 46.3146 639.835 48.6418C619.257 100.072 601.099 152.433 585.363 205.492C583.789 210.728 579.916 217.244 574.589 215.499C580.884 195.02 587.179 174.541 593.352 154.062C593.836 152.549 594.321 150.804 593.231 149.524C592.263 148.244 590.447 148.244 588.873 148.244C579.31 148.244 569.747 148.244 560.184 148.244C557.037 148.244 553.769 148.36 551.106 149.873C545.78 152.898 545.174 159.763 543.964 165.581C542.632 171.399 537.548 177.915 531.738 175.937C538.517 155.342 545.295 134.747 551.953 114.151C553.164 110.544 556.432 105.89 559.942 107.752Z" fill="url(#paint16_linear_680_635)"/>
<path d="M340.385 89.8966C329.441 90.2456 318.497 90.7108 307.431 91.176C305.972 91.176 304.146 91.2923 303.538 89.8966C300.012 82.104 299.891 71.4038 307.552 66.8678C315.091 62.4481 329.806 62.6805 338.683 62.0989C362.152 60.3543 385.621 58.726 409.09 56.9813C427.939 55.702 446.665 54.3062 465.514 53.0269C469.891 63.262 476.093 73.9624 465.514 76.8701C454.934 79.7778 437.909 80.9267 417.845 83.267C397.781 85.6074 388.173 84.4301 375.892 87.3378C361.543 87.3378 359.355 100.481 361.909 113.972C376.379 113.624 390.972 113.158 405.564 112.693C406.658 112.693 407.874 112.693 408.604 113.507C409.577 114.554 408.969 116.182 408.361 117.462C390.85 151.889 373.339 186.2 355.829 220.627C348.897 234.235 340.75 249.007 326.158 254.822C341.844 214.928 357.409 175.034 373.096 135.141C357.653 136.42 342.088 137.583 326.644 138.746C331.143 122.463 335.764 106.18 340.385 89.8966Z" fill="url(#paint17_linear_680_635)"/>
<defs>
<linearGradient id="paint0_linear_680_635" x1="150.702" y1="156.145" x2="151.24" y2="135.886" gradientUnits="userSpaceOnUse">
<stop stop-color="#FDFBA1"/>
<stop offset="1" stop-color="#FFFD98" stop-opacity="0"/>
</linearGradient>
<linearGradient id="paint1_linear_680_635" x1="252.914" y1="122.039" x2="253.726" y2="110.545" gradientUnits="userSpaceOnUse">
<stop stop-color="#FDFBA1"/>
<stop offset="1" stop-color="#FFFD98" stop-opacity="0"/>
</linearGradient>
<linearGradient id="paint2_linear_680_635" x1="487.513" y1="148.01" x2="487.797" y2="139.927" gradientUnits="userSpaceOnUse">
<stop stop-color="#FDFBA1"/>
<stop offset="1" stop-color="#FFFD98" stop-opacity="0"/>
</linearGradient>
<linearGradient id="paint3_linear_680_635" x1="191.163" y1="116.824" x2="191.477" y2="107.799" gradientUnits="userSpaceOnUse">
<stop stop-color="#FDFBA1"/>
<stop offset="1" stop-color="#FFFD98" stop-opacity="0"/>
</linearGradient>
<linearGradient id="paint4_linear_680_635" x1="233.116" y1="190.675" x2="233.288" y2="183.765" gradientUnits="userSpaceOnUse">
<stop stop-color="#FDFBA1"/>
<stop offset="1" stop-color="#FFFD98" stop-opacity="0"/>
</linearGradient>
<linearGradient id="paint5_linear_680_635" x1="417.028" y1="155.028" x2="417.283" y2="147.021" gradientUnits="userSpaceOnUse">
<stop stop-color="#FDFBA1"/>
<stop offset="1" stop-color="#FFFD98" stop-opacity="0"/>
</linearGradient>
<linearGradient id="paint6_linear_680_635" x1="52.2501" y1="35.3599" x2="52.3922" y2="27.5834" gradientUnits="userSpaceOnUse">
<stop stop-color="#FDFBA1"/>
<stop offset="1" stop-color="#FFFD98" stop-opacity="0"/>
</linearGradient>
<linearGradient id="paint7_linear_680_635" x1="569.402" y1="129.445" x2="570.476" y2="111.279" gradientUnits="userSpaceOnUse">
<stop stop-color="#FDFBA1"/>
<stop offset="1" stop-color="#FFFD98" stop-opacity="0"/>
</linearGradient>
<linearGradient id="paint8_linear_680_635" x1="359.263" y1="152.124" x2="360.218" y2="130.636" gradientUnits="userSpaceOnUse">
<stop stop-color="#FDFBA1"/>
<stop offset="1" stop-color="#FFFD98" stop-opacity="0"/>
</linearGradient>
<linearGradient id="paint9_linear_680_635" x1="194.43" y1="62.6006" x2="194.43" y2="252.612" gradientUnits="userSpaceOnUse">
<stop stop-color="#0CEB99"/>
<stop offset="1" stop-color="#05070C"/>
</linearGradient>
<linearGradient id="paint10_linear_680_635" x1="260.713" y1="67.0195" x2="260.713" y2="175.282" gradientUnits="userSpaceOnUse">
<stop stop-color="#0CEB99"/>
<stop offset="1" stop-color="#05070C"/>
</linearGradient>
<linearGradient id="paint11_linear_680_635" x1="499.332" y1="108.262" x2="499.332" y2="184.119" gradientUnits="userSpaceOnUse">
<stop stop-color="#0CEB99"/>
<stop offset="1" stop-color="#05070C"/>
</linearGradient>
<linearGradient id="paint12_linear_680_635" x1="204.741" y1="72.9111" x2="204.741" y2="157.606" gradientUnits="userSpaceOnUse">
<stop stop-color="#0CCC86"/>
<stop offset="1" stop-color="#05070C"/>
</linearGradient>
<linearGradient id="paint13_linear_680_635" x1="247.825" y1="156.133" x2="247.825" y2="220.943" gradientUnits="userSpaceOnUse">
<stop stop-color="#0CEB99"/>
<stop offset="1" stop-color="#05070C"/>
</linearGradient>
<linearGradient id="paint14_linear_680_635" x1="430.104" y1="115.627" x2="430.104" y2="190.748" gradientUnits="userSpaceOnUse">
<stop stop-color="#0CEB99"/>
<stop offset="1" stop-color="#05070C"/>
</linearGradient>
<linearGradient id="paint15_linear_680_635" x1="74.7526" y1="0" x2="74.7526" y2="72.9114" gradientUnits="userSpaceOnUse">
<stop stop-color="#0CD88D"/>
<stop offset="1" stop-color="#05070C"/>
</linearGradient>
<linearGradient id="paint16_linear_680_635" x1="585.869" y1="44.9248" x2="585.869" y2="215.788" gradientUnits="userSpaceOnUse">
<stop stop-color="#0CEB99"/>
<stop offset="1" stop-color="#05070C"/>
</linearGradient>
<linearGradient id="paint17_linear_680_635" x1="386.283" y1="53.0269" x2="386.283" y2="254.822" gradientUnits="userSpaceOnUse">
<stop stop-color="#0CEB99"/>
<stop offset="1" stop-color="#05070C"/>
</linearGradient>
</defs>
</svg>
